%TF.GenerationSoftware,KiCad,Pcbnew,5.1.9*%
%TF.CreationDate,2021-01-01T13:20:52-05:00*%
%TF.ProjectId,card_lights,63617264-5f6c-4696-9768-74732e6b6963,rev?*%
%TF.SameCoordinates,PX754d4c0PY5e69ec0*%
%TF.FileFunction,Copper,L2,Bot*%
%TF.FilePolarity,Positive*%
%FSLAX46Y46*%
G04 Gerber Fmt 4.6, Leading zero omitted, Abs format (unit mm)*
G04 Created by KiCad (PCBNEW 5.1.9) date 2021-01-01 13:20:52*
%MOMM*%
%LPD*%
G01*
G04 APERTURE LIST*
%TA.AperFunction,ViaPad*%
%ADD10C,0.800000*%
%TD*%
%TA.AperFunction,Conductor*%
%ADD11C,0.254000*%
%TD*%
%TA.AperFunction,Conductor*%
%ADD12C,0.100000*%
%TD*%
G04 APERTURE END LIST*
D10*
%TO.N,Net-(J1-Pad1)*%
X-3200000Y-42100000D03*
%TD*%
D11*
%TO.N,Net-(J1-Pad1)*%
X-1884227Y-1415279D02*
X-1772852Y-1448905D01*
X-1670141Y-1503518D01*
X-1579986Y-1577046D01*
X-1505832Y-1666682D01*
X-1450503Y-1769011D01*
X-1416103Y-1880141D01*
X-1402000Y-2014318D01*
X-1401999Y-14328531D01*
X-1435780Y-14360926D01*
X-1440642Y-14366158D01*
X-1445912Y-14370993D01*
X-1454567Y-14380190D01*
X-2360107Y-15373125D01*
X-2370707Y-15386184D01*
X-2381733Y-15398929D01*
X-2389273Y-15409059D01*
X-3174686Y-16499493D01*
X-3183728Y-16513706D01*
X-3193202Y-16527612D01*
X-3199529Y-16538542D01*
X-3854406Y-17712023D01*
X-3861748Y-17727168D01*
X-3869568Y-17742084D01*
X-3874596Y-17753669D01*
X-4390257Y-18994642D01*
X-4395811Y-19010535D01*
X-4401863Y-19026247D01*
X-4405526Y-19038332D01*
X-4775135Y-20330351D01*
X-4778826Y-20346776D01*
X-4783032Y-20363080D01*
X-4785282Y-20375507D01*
X-5003940Y-21701443D01*
X-5005720Y-21718195D01*
X-5008022Y-21734863D01*
X-5008829Y-21747465D01*
X-5073639Y-23089748D01*
X-5073482Y-23106571D01*
X-5073854Y-23123415D01*
X-5073207Y-23136027D01*
X-4983310Y-24476863D01*
X-4981217Y-24493578D01*
X-4979653Y-24510332D01*
X-4977564Y-24522763D01*
X-4977561Y-24522786D01*
X-4977557Y-24522803D01*
X-4734146Y-25844403D01*
X-4730151Y-25860749D01*
X-4726667Y-25877230D01*
X-4723157Y-25889361D01*
X-4329454Y-27174242D01*
X-4323603Y-27190030D01*
X-4318251Y-27205992D01*
X-4313370Y-27217639D01*
X-3774596Y-28448753D01*
X-3766966Y-28463769D01*
X-3759818Y-28479004D01*
X-3753631Y-28490013D01*
X-3076926Y-29651044D01*
X-3067625Y-29665078D01*
X-3058769Y-29679397D01*
X-3051358Y-29689622D01*
X-2245692Y-30765179D01*
X-2234845Y-30778044D01*
X-2224397Y-30791257D01*
X-2215859Y-30800562D01*
X-1401999Y-31660121D01*
X-1402000Y-43980343D01*
X-1415280Y-44115776D01*
X-1448905Y-44227146D01*
X-1503518Y-44329860D01*
X-1577046Y-44420014D01*
X-1666682Y-44494168D01*
X-1769011Y-44549497D01*
X-1880141Y-44583897D01*
X-2014319Y-44598000D01*
X-21980343Y-44598000D01*
X-22115776Y-44584720D01*
X-22227146Y-44551095D01*
X-22329860Y-44496482D01*
X-22420014Y-44422954D01*
X-22494168Y-44333318D01*
X-22549497Y-44230989D01*
X-22583897Y-44119859D01*
X-22598000Y-43985681D01*
X-22598000Y-2019658D01*
X-22584721Y-1884227D01*
X-22551095Y-1772852D01*
X-22496482Y-1670141D01*
X-22422954Y-1579986D01*
X-22333318Y-1505832D01*
X-22230989Y-1450503D01*
X-22119859Y-1416103D01*
X-21985682Y-1402000D01*
X-2019658Y-1402000D01*
X-1884227Y-1415279D01*
%TA.AperFunction,Conductor*%
D12*
G36*
X-1884227Y-1415279D02*
G01*
X-1772852Y-1448905D01*
X-1670141Y-1503518D01*
X-1579986Y-1577046D01*
X-1505832Y-1666682D01*
X-1450503Y-1769011D01*
X-1416103Y-1880141D01*
X-1402000Y-2014318D01*
X-1401999Y-14328531D01*
X-1435780Y-14360926D01*
X-1440642Y-14366158D01*
X-1445912Y-14370993D01*
X-1454567Y-14380190D01*
X-2360107Y-15373125D01*
X-2370707Y-15386184D01*
X-2381733Y-15398929D01*
X-2389273Y-15409059D01*
X-3174686Y-16499493D01*
X-3183728Y-16513706D01*
X-3193202Y-16527612D01*
X-3199529Y-16538542D01*
X-3854406Y-17712023D01*
X-3861748Y-17727168D01*
X-3869568Y-17742084D01*
X-3874596Y-17753669D01*
X-4390257Y-18994642D01*
X-4395811Y-19010535D01*
X-4401863Y-19026247D01*
X-4405526Y-19038332D01*
X-4775135Y-20330351D01*
X-4778826Y-20346776D01*
X-4783032Y-20363080D01*
X-4785282Y-20375507D01*
X-5003940Y-21701443D01*
X-5005720Y-21718195D01*
X-5008022Y-21734863D01*
X-5008829Y-21747465D01*
X-5073639Y-23089748D01*
X-5073482Y-23106571D01*
X-5073854Y-23123415D01*
X-5073207Y-23136027D01*
X-4983310Y-24476863D01*
X-4981217Y-24493578D01*
X-4979653Y-24510332D01*
X-4977564Y-24522763D01*
X-4977561Y-24522786D01*
X-4977557Y-24522803D01*
X-4734146Y-25844403D01*
X-4730151Y-25860749D01*
X-4726667Y-25877230D01*
X-4723157Y-25889361D01*
X-4329454Y-27174242D01*
X-4323603Y-27190030D01*
X-4318251Y-27205992D01*
X-4313370Y-27217639D01*
X-3774596Y-28448753D01*
X-3766966Y-28463769D01*
X-3759818Y-28479004D01*
X-3753631Y-28490013D01*
X-3076926Y-29651044D01*
X-3067625Y-29665078D01*
X-3058769Y-29679397D01*
X-3051358Y-29689622D01*
X-2245692Y-30765179D01*
X-2234845Y-30778044D01*
X-2224397Y-30791257D01*
X-2215859Y-30800562D01*
X-1401999Y-31660121D01*
X-1402000Y-43980343D01*
X-1415280Y-44115776D01*
X-1448905Y-44227146D01*
X-1503518Y-44329860D01*
X-1577046Y-44420014D01*
X-1666682Y-44494168D01*
X-1769011Y-44549497D01*
X-1880141Y-44583897D01*
X-2014319Y-44598000D01*
X-21980343Y-44598000D01*
X-22115776Y-44584720D01*
X-22227146Y-44551095D01*
X-22329860Y-44496482D01*
X-22420014Y-44422954D01*
X-22494168Y-44333318D01*
X-22549497Y-44230989D01*
X-22583897Y-44119859D01*
X-22598000Y-43985681D01*
X-22598000Y-2019658D01*
X-22584721Y-1884227D01*
X-22551095Y-1772852D01*
X-22496482Y-1670141D01*
X-22422954Y-1579986D01*
X-22333318Y-1505832D01*
X-22230989Y-1450503D01*
X-22119859Y-1416103D01*
X-21985682Y-1402000D01*
X-2019658Y-1402000D01*
X-1884227Y-1415279D01*
G37*
%TD.AperFunction*%
%TD*%
M02*
