%TF.GenerationSoftware,KiCad,Pcbnew,5.1.9*%
%TF.CreationDate,2021-01-01T13:20:52-05:00*%
%TF.ProjectId,card_lights,63617264-5f6c-4696-9768-74732e6b6963,rev?*%
%TF.SameCoordinates,PX754d4c0PY5e69ec0*%
%TF.FileFunction,Legend,Top*%
%TF.FilePolarity,Positive*%
%FSLAX46Y46*%
G04 Gerber Fmt 4.6, Leading zero omitted, Abs format (unit mm)*
G04 Created by KiCad (PCBNEW 5.1.9) date 2021-01-01 13:20:52*
%MOMM*%
%LPD*%
G01*
G04 APERTURE LIST*
%ADD10C,0.150000*%
%ADD11C,0.010000*%
%ADD12C,0.120000*%
G04 APERTURE END LIST*
D10*
X-22023810Y-42952380D02*
X-21690477Y-43952380D01*
X-21357143Y-42952380D01*
X-20500000Y-43952380D02*
X-21071429Y-43952380D01*
X-20785715Y-43952380D02*
X-20785715Y-42952380D01*
X-20880953Y-43095238D01*
X-20976191Y-43190476D01*
X-21071429Y-43238095D01*
X-20071429Y-43857142D02*
X-20023810Y-43904761D01*
X-20071429Y-43952380D01*
X-20119048Y-43904761D01*
X-20071429Y-43857142D01*
X-20071429Y-43952380D01*
X-19404762Y-42952380D02*
X-19309524Y-42952380D01*
X-19214286Y-43000000D01*
X-19166667Y-43047619D01*
X-19119048Y-43142857D01*
X-19071429Y-43333333D01*
X-19071429Y-43571428D01*
X-19119048Y-43761904D01*
X-19166667Y-43857142D01*
X-19214286Y-43904761D01*
X-19309524Y-43952380D01*
X-19404762Y-43952380D01*
X-19500000Y-43904761D01*
X-19547620Y-43857142D01*
X-19595239Y-43761904D01*
X-19642858Y-43571428D01*
X-19642858Y-43333333D01*
X-19595239Y-43142857D01*
X-19547620Y-43047619D01*
X-19500000Y-43000000D01*
X-19404762Y-42952380D01*
X-5238096Y-7452380D02*
X-5238096Y-6452380D01*
X-4857143Y-6452380D01*
X-4761905Y-6500000D01*
X-4714286Y-6547619D01*
X-4666667Y-6642857D01*
X-4666667Y-6785714D01*
X-4714286Y-6880952D01*
X-4761905Y-6928571D01*
X-4857143Y-6976190D01*
X-5238096Y-6976190D01*
X-3904762Y-6928571D02*
X-3761905Y-6976190D01*
X-3714286Y-7023809D01*
X-3666667Y-7119047D01*
X-3666667Y-7261904D01*
X-3714286Y-7357142D01*
X-3761905Y-7404761D01*
X-3857143Y-7452380D01*
X-4238096Y-7452380D01*
X-4238096Y-6452380D01*
X-3904762Y-6452380D01*
X-3809524Y-6500000D01*
X-3761905Y-6547619D01*
X-3714286Y-6642857D01*
X-3714286Y-6738095D01*
X-3761905Y-6833333D01*
X-3809524Y-6880952D01*
X-3904762Y-6928571D01*
X-4238096Y-6928571D01*
X-3285715Y-6547619D02*
X-3238096Y-6500000D01*
X-3142858Y-6452380D01*
X-2904762Y-6452380D01*
X-2809524Y-6500000D01*
X-2761905Y-6547619D01*
X-2714286Y-6642857D01*
X-2714286Y-6738095D01*
X-2761905Y-6880952D01*
X-3333334Y-7452380D01*
X-2714286Y-7452380D01*
X-13238096Y-7452380D02*
X-13238096Y-6452380D01*
X-12857143Y-6452380D01*
X-12761905Y-6500000D01*
X-12714286Y-6547619D01*
X-12666667Y-6642857D01*
X-12666667Y-6785714D01*
X-12714286Y-6880952D01*
X-12761905Y-6928571D01*
X-12857143Y-6976190D01*
X-13238096Y-6976190D01*
X-11904762Y-6928571D02*
X-11761905Y-6976190D01*
X-11714286Y-7023809D01*
X-11666667Y-7119047D01*
X-11666667Y-7261904D01*
X-11714286Y-7357142D01*
X-11761905Y-7404761D01*
X-11857143Y-7452380D01*
X-12238096Y-7452380D01*
X-12238096Y-6452380D01*
X-11904762Y-6452380D01*
X-11809524Y-6500000D01*
X-11761905Y-6547619D01*
X-11714286Y-6642857D01*
X-11714286Y-6738095D01*
X-11761905Y-6833333D01*
X-11809524Y-6880952D01*
X-11904762Y-6928571D01*
X-12238096Y-6928571D01*
X-11047620Y-6452380D02*
X-10952381Y-6452380D01*
X-10857143Y-6500000D01*
X-10809524Y-6547619D01*
X-10761905Y-6642857D01*
X-10714286Y-6833333D01*
X-10714286Y-7071428D01*
X-10761905Y-7261904D01*
X-10809524Y-7357142D01*
X-10857143Y-7404761D01*
X-10952381Y-7452380D01*
X-11047620Y-7452380D01*
X-11142858Y-7404761D01*
X-11190477Y-7357142D01*
X-11238096Y-7261904D01*
X-11285715Y-7071428D01*
X-11285715Y-6833333D01*
X-11238096Y-6642857D01*
X-11190477Y-6547619D01*
X-11142858Y-6500000D01*
X-11047620Y-6452380D01*
X-21238096Y-7452380D02*
X-21238096Y-6452380D01*
X-20857143Y-6452380D01*
X-20761905Y-6500000D01*
X-20714286Y-6547619D01*
X-20666667Y-6642857D01*
X-20666667Y-6785714D01*
X-20714286Y-6880952D01*
X-20761905Y-6928571D01*
X-20857143Y-6976190D01*
X-21238096Y-6976190D01*
X-19904762Y-6928571D02*
X-19761905Y-6976190D01*
X-19714286Y-7023809D01*
X-19666667Y-7119047D01*
X-19666667Y-7261904D01*
X-19714286Y-7357142D01*
X-19761905Y-7404761D01*
X-19857143Y-7452380D01*
X-20238096Y-7452380D01*
X-20238096Y-6452380D01*
X-19904762Y-6452380D01*
X-19809524Y-6500000D01*
X-19761905Y-6547619D01*
X-19714286Y-6642857D01*
X-19714286Y-6738095D01*
X-19761905Y-6833333D01*
X-19809524Y-6880952D01*
X-19904762Y-6928571D01*
X-20238096Y-6928571D01*
X-18714286Y-7452380D02*
X-19285715Y-7452380D01*
X-19000000Y-7452380D02*
X-19000000Y-6452380D01*
X-19095239Y-6595238D01*
X-19190477Y-6690476D01*
X-19285715Y-6738095D01*
X-22214286Y-31333333D02*
X-21404762Y-31333333D01*
X-21309524Y-31380952D01*
X-21261905Y-31428571D01*
X-21214286Y-31523809D01*
X-21214286Y-31666666D01*
X-21261905Y-31761904D01*
X-21595239Y-31333333D02*
X-21547620Y-31428571D01*
X-21547620Y-31619047D01*
X-21595239Y-31714285D01*
X-21642858Y-31761904D01*
X-21738096Y-31809523D01*
X-22023810Y-31809523D01*
X-22119048Y-31761904D01*
X-22166667Y-31714285D01*
X-22214286Y-31619047D01*
X-22214286Y-31428571D01*
X-22166667Y-31333333D01*
X-21547620Y-30857142D02*
X-22214286Y-30857142D01*
X-22547620Y-30857142D02*
X-22500000Y-30904761D01*
X-22452381Y-30857142D01*
X-22500000Y-30809523D01*
X-22547620Y-30857142D01*
X-22452381Y-30857142D01*
X-22214286Y-30523809D02*
X-22214286Y-30142857D01*
X-22547620Y-30380952D02*
X-21690477Y-30380952D01*
X-21595239Y-30333333D01*
X-21547620Y-30238095D01*
X-21547620Y-30142857D01*
X-21547620Y-29809523D02*
X-22547620Y-29809523D01*
X-21547620Y-29380952D02*
X-22071429Y-29380952D01*
X-22166667Y-29428571D01*
X-22214286Y-29523809D01*
X-22214286Y-29666666D01*
X-22166667Y-29761904D01*
X-22119048Y-29809523D01*
X-22214286Y-28476190D02*
X-21547620Y-28476190D01*
X-22214286Y-28904761D02*
X-21690477Y-28904761D01*
X-21595239Y-28857142D01*
X-21547620Y-28761904D01*
X-21547620Y-28619047D01*
X-21595239Y-28523809D01*
X-21642858Y-28476190D01*
X-21547620Y-28000000D02*
X-22547620Y-28000000D01*
X-22166667Y-28000000D02*
X-22214286Y-27904761D01*
X-22214286Y-27714285D01*
X-22166667Y-27619047D01*
X-22119048Y-27571428D01*
X-22023810Y-27523809D01*
X-21738096Y-27523809D01*
X-21642858Y-27571428D01*
X-21595239Y-27619047D01*
X-21547620Y-27714285D01*
X-21547620Y-27904761D01*
X-21595239Y-28000000D01*
X-21642858Y-27095238D02*
X-21595239Y-27047619D01*
X-21547620Y-27095238D01*
X-21595239Y-27142857D01*
X-21642858Y-27095238D01*
X-21547620Y-27095238D01*
X-21595239Y-26190476D02*
X-21547620Y-26285714D01*
X-21547620Y-26476190D01*
X-21595239Y-26571428D01*
X-21642858Y-26619047D01*
X-21738096Y-26666666D01*
X-22023810Y-26666666D01*
X-22119048Y-26619047D01*
X-22166667Y-26571428D01*
X-22214286Y-26476190D01*
X-22214286Y-26285714D01*
X-22166667Y-26190476D01*
X-21547620Y-25619047D02*
X-21595239Y-25714285D01*
X-21642858Y-25761904D01*
X-21738096Y-25809523D01*
X-22023810Y-25809523D01*
X-22119048Y-25761904D01*
X-22166667Y-25714285D01*
X-22214286Y-25619047D01*
X-22214286Y-25476190D01*
X-22166667Y-25380952D01*
X-22119048Y-25333333D01*
X-22023810Y-25285714D01*
X-21738096Y-25285714D01*
X-21642858Y-25333333D01*
X-21595239Y-25380952D01*
X-21547620Y-25476190D01*
X-21547620Y-25619047D01*
X-21547620Y-24857142D02*
X-22214286Y-24857142D01*
X-22119048Y-24857142D02*
X-22166667Y-24809523D01*
X-22214286Y-24714285D01*
X-22214286Y-24571428D01*
X-22166667Y-24476190D01*
X-22071429Y-24428571D01*
X-21547620Y-24428571D01*
X-22071429Y-24428571D02*
X-22166667Y-24380952D01*
X-22214286Y-24285714D01*
X-22214286Y-24142857D01*
X-22166667Y-24047619D01*
X-22071429Y-24000000D01*
X-21547620Y-24000000D01*
X-22595239Y-22809523D02*
X-21309524Y-23666666D01*
X-21595239Y-22523809D02*
X-21547620Y-22428571D01*
X-21547620Y-22238095D01*
X-21595239Y-22142857D01*
X-21690477Y-22095238D01*
X-21738096Y-22095238D01*
X-21833334Y-22142857D01*
X-21880953Y-22238095D01*
X-21880953Y-22380952D01*
X-21928572Y-22476190D01*
X-22023810Y-22523809D01*
X-22071429Y-22523809D01*
X-22166667Y-22476190D01*
X-22214286Y-22380952D01*
X-22214286Y-22238095D01*
X-22166667Y-22142857D01*
X-21547620Y-21238095D02*
X-22547620Y-21238095D01*
X-21595239Y-21238095D02*
X-21547620Y-21333333D01*
X-21547620Y-21523809D01*
X-21595239Y-21619047D01*
X-21642858Y-21666666D01*
X-21738096Y-21714285D01*
X-22023810Y-21714285D01*
X-22119048Y-21666666D01*
X-22166667Y-21619047D01*
X-22214286Y-21523809D01*
X-22214286Y-21333333D01*
X-22166667Y-21238095D01*
X-22214286Y-20761904D02*
X-21214286Y-20761904D01*
X-22166667Y-20761904D02*
X-22214286Y-20666666D01*
X-22214286Y-20476190D01*
X-22166667Y-20380952D01*
X-22119048Y-20333333D01*
X-22023810Y-20285714D01*
X-21738096Y-20285714D01*
X-21642858Y-20333333D01*
X-21595239Y-20380952D01*
X-21547620Y-20476190D01*
X-21547620Y-20666666D01*
X-21595239Y-20761904D01*
X-22119048Y-19714285D02*
X-22166667Y-19809523D01*
X-22214286Y-19857142D01*
X-22309524Y-19904761D01*
X-22357143Y-19904761D01*
X-22452381Y-19857142D01*
X-22500000Y-19809523D01*
X-22547620Y-19714285D01*
X-22547620Y-19523809D01*
X-22500000Y-19428571D01*
X-22452381Y-19380952D01*
X-22357143Y-19333333D01*
X-22309524Y-19333333D01*
X-22214286Y-19380952D01*
X-22166667Y-19428571D01*
X-22119048Y-19523809D01*
X-22119048Y-19714285D01*
X-22071429Y-19809523D01*
X-22023810Y-19857142D01*
X-21928572Y-19904761D01*
X-21738096Y-19904761D01*
X-21642858Y-19857142D01*
X-21595239Y-19809523D01*
X-21547620Y-19714285D01*
X-21547620Y-19523809D01*
X-21595239Y-19428571D01*
X-21642858Y-19380952D01*
X-21738096Y-19333333D01*
X-21928572Y-19333333D01*
X-22023810Y-19380952D01*
X-22071429Y-19428571D01*
X-22119048Y-19523809D01*
X-22214286Y-18476190D02*
X-21547620Y-18476190D01*
X-22595239Y-18714285D02*
X-21880953Y-18952380D01*
X-21880953Y-18333333D01*
X-22119048Y-17809523D02*
X-22166667Y-17904761D01*
X-22214286Y-17952380D01*
X-22309524Y-18000000D01*
X-22357143Y-18000000D01*
X-22452381Y-17952380D01*
X-22500000Y-17904761D01*
X-22547620Y-17809523D01*
X-22547620Y-17619047D01*
X-22500000Y-17523809D01*
X-22452381Y-17476190D01*
X-22357143Y-17428571D01*
X-22309524Y-17428571D01*
X-22214286Y-17476190D01*
X-22166667Y-17523809D01*
X-22119048Y-17619047D01*
X-22119048Y-17809523D01*
X-22071429Y-17904761D01*
X-22023810Y-17952380D01*
X-21928572Y-18000000D01*
X-21738096Y-18000000D01*
X-21642858Y-17952380D01*
X-21595239Y-17904761D01*
X-21547620Y-17809523D01*
X-21547620Y-17619047D01*
X-21595239Y-17523809D01*
X-21642858Y-17476190D01*
X-21738096Y-17428571D01*
X-21928572Y-17428571D01*
X-22023810Y-17476190D01*
X-22071429Y-17523809D01*
X-22119048Y-17619047D01*
X-22547620Y-17095238D02*
X-22547620Y-16476190D01*
X-22166667Y-16809523D01*
X-22166667Y-16666666D01*
X-22119048Y-16571428D01*
X-22071429Y-16523809D01*
X-21976191Y-16476190D01*
X-21738096Y-16476190D01*
X-21642858Y-16523809D01*
X-21595239Y-16571428D01*
X-21547620Y-16666666D01*
X-21547620Y-16952380D01*
X-21595239Y-17047619D01*
X-21642858Y-17095238D01*
X-22595239Y-15333333D02*
X-21309524Y-16190476D01*
X-21595239Y-14571428D02*
X-21547620Y-14666666D01*
X-21547620Y-14857142D01*
X-21595239Y-14952380D01*
X-21642858Y-15000000D01*
X-21738096Y-15047619D01*
X-22023810Y-15047619D01*
X-22119048Y-15000000D01*
X-22166667Y-14952380D01*
X-22214286Y-14857142D01*
X-22214286Y-14666666D01*
X-22166667Y-14571428D01*
X-21547620Y-13714285D02*
X-22071429Y-13714285D01*
X-22166667Y-13761904D01*
X-22214286Y-13857142D01*
X-22214286Y-14047619D01*
X-22166667Y-14142857D01*
X-21595239Y-13714285D02*
X-21547620Y-13809523D01*
X-21547620Y-14047619D01*
X-21595239Y-14142857D01*
X-21690477Y-14190476D01*
X-21785715Y-14190476D01*
X-21880953Y-14142857D01*
X-21928572Y-14047619D01*
X-21928572Y-13809523D01*
X-21976191Y-13714285D01*
X-21547620Y-13238095D02*
X-22214286Y-13238095D01*
X-22023810Y-13238095D02*
X-22119048Y-13190476D01*
X-22166667Y-13142857D01*
X-22214286Y-13047619D01*
X-22214286Y-12952380D01*
X-21547620Y-12190476D02*
X-22547620Y-12190476D01*
X-21595239Y-12190476D02*
X-21547620Y-12285714D01*
X-21547620Y-12476190D01*
X-21595239Y-12571428D01*
X-21642858Y-12619047D01*
X-21738096Y-12666666D01*
X-22023810Y-12666666D01*
X-22119048Y-12619047D01*
X-22166667Y-12571428D01*
X-22214286Y-12476190D01*
X-22214286Y-12285714D01*
X-22166667Y-12190476D01*
X-21452381Y-11952380D02*
X-21452381Y-11190476D01*
X-21547620Y-10809523D02*
X-21595239Y-10904761D01*
X-21690477Y-10952380D01*
X-22547620Y-10952380D01*
X-21547620Y-10428571D02*
X-22214286Y-10428571D01*
X-22547620Y-10428571D02*
X-22500000Y-10476190D01*
X-22452381Y-10428571D01*
X-22500000Y-10380952D01*
X-22547620Y-10428571D01*
X-22452381Y-10428571D01*
X-22214286Y-9523809D02*
X-21404762Y-9523809D01*
X-21309524Y-9571428D01*
X-21261905Y-9619047D01*
X-21214286Y-9714285D01*
X-21214286Y-9857142D01*
X-21261905Y-9952380D01*
X-21595239Y-9523809D02*
X-21547620Y-9619047D01*
X-21547620Y-9809523D01*
X-21595239Y-9904761D01*
X-21642858Y-9952380D01*
X-21738096Y-10000000D01*
X-22023810Y-10000000D01*
X-22119048Y-9952380D01*
X-22166667Y-9904761D01*
X-22214286Y-9809523D01*
X-22214286Y-9619047D01*
X-22166667Y-9523809D01*
X-21547620Y-9047619D02*
X-22547620Y-9047619D01*
X-21547620Y-8619047D02*
X-22071429Y-8619047D01*
X-22166667Y-8666666D01*
X-22214286Y-8761904D01*
X-22214286Y-8904761D01*
X-22166667Y-9000000D01*
X-22119048Y-9047619D01*
X-22214286Y-8285714D02*
X-22214286Y-7904761D01*
X-22547620Y-8142857D02*
X-21690477Y-8142857D01*
X-21595239Y-8095238D01*
X-21547620Y-8000000D01*
X-21547620Y-7904761D01*
X-21595239Y-7619047D02*
X-21547620Y-7523809D01*
X-21547620Y-7333333D01*
X-21595239Y-7238095D01*
X-21690477Y-7190476D01*
X-21738096Y-7190476D01*
X-21833334Y-7238095D01*
X-21880953Y-7333333D01*
X-21880953Y-7476190D01*
X-21928572Y-7571428D01*
X-22023810Y-7619047D01*
X-22071429Y-7619047D01*
X-22166667Y-7571428D01*
X-22214286Y-7476190D01*
X-22214286Y-7333333D01*
X-22166667Y-7238095D01*
D11*
%TO.C,G\u002A\u002A\u002A*%
G36*
X-3466296Y-10523664D02*
G01*
X-3425472Y-10549956D01*
X-3380557Y-10589756D01*
X-3335215Y-10639783D01*
X-3293111Y-10696757D01*
X-3289942Y-10701596D01*
X-3237924Y-10796413D01*
X-3202204Y-10897216D01*
X-3181304Y-11009045D01*
X-3174774Y-11094681D01*
X-3175931Y-11209248D01*
X-3189351Y-11321581D01*
X-3216082Y-11435794D01*
X-3257175Y-11555997D01*
X-3313681Y-11686303D01*
X-3339399Y-11739296D01*
X-3403142Y-11859769D01*
X-3469658Y-11968976D01*
X-3543043Y-12072659D01*
X-3627388Y-12176559D01*
X-3726789Y-12286419D01*
X-3737715Y-12297955D01*
X-3792769Y-12358485D01*
X-3837070Y-12414305D01*
X-3875927Y-12473053D01*
X-3914651Y-12542367D01*
X-3934247Y-12580633D01*
X-3957622Y-12624872D01*
X-3979290Y-12661823D01*
X-3995978Y-12686075D01*
X-4001495Y-12691794D01*
X-4009026Y-12701978D01*
X-4015039Y-12722308D01*
X-4019996Y-12755972D01*
X-4024357Y-12806161D01*
X-4028584Y-12876065D01*
X-4028834Y-12880773D01*
X-4033688Y-12948189D01*
X-4041691Y-13031408D01*
X-4052058Y-13123477D01*
X-4064000Y-13217445D01*
X-4076734Y-13306362D01*
X-4077639Y-13312248D01*
X-4090148Y-13393988D01*
X-4102316Y-13475023D01*
X-4113381Y-13550149D01*
X-4122578Y-13614168D01*
X-4129143Y-13661879D01*
X-4130285Y-13670658D01*
X-4143089Y-13751564D01*
X-4161502Y-13841748D01*
X-4184028Y-13935662D01*
X-4209171Y-14027758D01*
X-4235436Y-14112490D01*
X-4261327Y-14184307D01*
X-4280713Y-14228632D01*
X-4310409Y-14283915D01*
X-4339266Y-14325083D01*
X-4373292Y-14360074D01*
X-4392630Y-14376523D01*
X-4429640Y-14405430D01*
X-4463939Y-14430118D01*
X-4487868Y-14445106D01*
X-4530568Y-14461064D01*
X-4575794Y-14468573D01*
X-4613668Y-14466261D01*
X-4621557Y-14463689D01*
X-4643321Y-14448701D01*
X-4674997Y-14419703D01*
X-4712553Y-14381086D01*
X-4751955Y-14337245D01*
X-4789170Y-14292573D01*
X-4820166Y-14251462D01*
X-4830525Y-14236057D01*
X-4848826Y-14204654D01*
X-4874156Y-14157334D01*
X-4903907Y-14099162D01*
X-4935471Y-14035206D01*
X-4955910Y-13992537D01*
X-5016514Y-13854433D01*
X-5062370Y-13725957D01*
X-5095319Y-13600669D01*
X-5117198Y-13472130D01*
X-5124929Y-13400546D01*
X-5128833Y-13338905D01*
X-5131107Y-13264076D01*
X-5131833Y-13181398D01*
X-5131093Y-13096210D01*
X-5128969Y-13013852D01*
X-5126462Y-12959565D01*
X-4913234Y-12959565D01*
X-4913208Y-13056142D01*
X-4911925Y-13140773D01*
X-4910033Y-13227831D01*
X-4907951Y-13296215D01*
X-4905234Y-13350342D01*
X-4901437Y-13394627D01*
X-4896114Y-13433487D01*
X-4888821Y-13471336D01*
X-4879113Y-13512592D01*
X-4871372Y-13543030D01*
X-4850126Y-13612845D01*
X-4819555Y-13696534D01*
X-4782257Y-13788201D01*
X-4740834Y-13881947D01*
X-4697886Y-13971875D01*
X-4656012Y-14052088D01*
X-4619834Y-14113548D01*
X-4590926Y-14155324D01*
X-4559168Y-14195820D01*
X-4528077Y-14231180D01*
X-4501169Y-14257548D01*
X-4481961Y-14271067D01*
X-4475773Y-14271525D01*
X-4468102Y-14258303D01*
X-4456307Y-14228401D01*
X-4442503Y-14187372D01*
X-4437359Y-14170648D01*
X-4406873Y-14061729D01*
X-4380752Y-13951428D01*
X-4357529Y-13832846D01*
X-4335738Y-13699086D01*
X-4332567Y-13677725D01*
X-4320329Y-13594307D01*
X-4306300Y-13498512D01*
X-4292010Y-13400816D01*
X-4278993Y-13311693D01*
X-4275955Y-13290864D01*
X-4260688Y-13173613D01*
X-4248224Y-13049301D01*
X-4238421Y-12915177D01*
X-4231134Y-12768486D01*
X-4226222Y-12606478D01*
X-4223542Y-12426400D01*
X-4222909Y-12268873D01*
X-4222909Y-11882626D01*
X-4265543Y-11945972D01*
X-4288917Y-11976592D01*
X-4325887Y-12020034D01*
X-4373439Y-12073081D01*
X-4428559Y-12132516D01*
X-4488233Y-12195120D01*
X-4549447Y-12257676D01*
X-4609188Y-12316966D01*
X-4648254Y-12354555D01*
X-4681603Y-12388368D01*
X-4723145Y-12433721D01*
X-4766880Y-12483936D01*
X-4796873Y-12519983D01*
X-4883828Y-12626994D01*
X-4900517Y-12751111D01*
X-4907003Y-12810978D01*
X-4911203Y-12879153D01*
X-4913234Y-12959565D01*
X-5126462Y-12959565D01*
X-5125542Y-12939661D01*
X-5120893Y-12878979D01*
X-5116410Y-12844095D01*
X-5109088Y-12801416D01*
X-5228839Y-12852065D01*
X-5291531Y-12877191D01*
X-5360296Y-12902548D01*
X-5424398Y-12924258D01*
X-5452500Y-12932869D01*
X-5503676Y-12946287D01*
X-5563155Y-12959645D01*
X-5625754Y-12972038D01*
X-5686290Y-12982562D01*
X-5739581Y-12990310D01*
X-5780444Y-12994378D01*
X-5802784Y-12994057D01*
X-5803414Y-12986766D01*
X-5788353Y-12970651D01*
X-5761780Y-12948653D01*
X-5727875Y-12923711D01*
X-5690818Y-12898764D01*
X-5654788Y-12876753D01*
X-5623965Y-12860617D01*
X-5602673Y-12853314D01*
X-5476945Y-12834676D01*
X-5367126Y-12814241D01*
X-5274677Y-12792396D01*
X-5201055Y-12769531D01*
X-5147718Y-12746034D01*
X-5117740Y-12724108D01*
X-5106003Y-12707511D01*
X-5095853Y-12682916D01*
X-5086213Y-12646394D01*
X-5076009Y-12594018D01*
X-5066619Y-12537451D01*
X-5046075Y-12424955D01*
X-4847520Y-12424955D01*
X-4684624Y-12259745D01*
X-4602415Y-12173881D01*
X-4535060Y-12097309D01*
X-4479074Y-12025293D01*
X-4430969Y-11953098D01*
X-4387258Y-11875988D01*
X-4355724Y-11813046D01*
X-4328945Y-11750524D01*
X-4300134Y-11671902D01*
X-4271381Y-11583799D01*
X-4244778Y-11492834D01*
X-4222415Y-11405625D01*
X-4211889Y-11357787D01*
X-4199295Y-11308591D01*
X-4184555Y-11279135D01*
X-4165594Y-11266070D01*
X-4154136Y-11264636D01*
X-4135142Y-11258305D01*
X-4104348Y-11241708D01*
X-4068446Y-11218455D01*
X-4033770Y-11195357D01*
X-4005659Y-11178795D01*
X-3990075Y-11172277D01*
X-3989904Y-11172273D01*
X-3986309Y-11183291D01*
X-3984092Y-11214331D01*
X-3983181Y-11262366D01*
X-3983506Y-11324372D01*
X-3984996Y-11397324D01*
X-3987579Y-11478198D01*
X-3991185Y-11563969D01*
X-3995744Y-11651612D01*
X-4001184Y-11738101D01*
X-4004095Y-11778409D01*
X-4006949Y-11826180D01*
X-4009398Y-11886519D01*
X-4011418Y-11955994D01*
X-4012988Y-12031175D01*
X-4014084Y-12108630D01*
X-4014683Y-12184930D01*
X-4014764Y-12256642D01*
X-4014303Y-12320336D01*
X-4013278Y-12372581D01*
X-4011666Y-12409946D01*
X-4009445Y-12429000D01*
X-4008406Y-12430727D01*
X-3997391Y-12423132D01*
X-3975631Y-12403431D01*
X-3953565Y-12381659D01*
X-3881982Y-12305072D01*
X-3808956Y-12220520D01*
X-3741669Y-12136524D01*
X-3703330Y-12084740D01*
X-3655569Y-12011275D01*
X-3604728Y-11922413D01*
X-3554186Y-11824925D01*
X-3507321Y-11725584D01*
X-3467511Y-11631162D01*
X-3442321Y-11561598D01*
X-3424634Y-11505449D01*
X-3412369Y-11459551D01*
X-3404306Y-11416515D01*
X-3399224Y-11368954D01*
X-3395904Y-11309481D01*
X-3394488Y-11271943D01*
X-3393287Y-11179639D01*
X-3397599Y-11103403D01*
X-3408634Y-11036614D01*
X-3427606Y-10972653D01*
X-3455726Y-10904901D01*
X-3465499Y-10884153D01*
X-3494278Y-10833671D01*
X-3531491Y-10781643D01*
X-3572630Y-10733267D01*
X-3613185Y-10693738D01*
X-3648646Y-10668254D01*
X-3655826Y-10664834D01*
X-3672453Y-10660408D01*
X-3693116Y-10660476D01*
X-3720220Y-10665909D01*
X-3756174Y-10677577D01*
X-3803385Y-10696351D01*
X-3864260Y-10723098D01*
X-3941207Y-10758691D01*
X-4023330Y-10797640D01*
X-4098401Y-10834465D01*
X-4156293Y-10865382D01*
X-4201299Y-10892984D01*
X-4237709Y-10919863D01*
X-4263927Y-10942961D01*
X-4337492Y-11024182D01*
X-4409644Y-11126850D01*
X-4479458Y-11249326D01*
X-4546008Y-11389972D01*
X-4608368Y-11547148D01*
X-4614038Y-11562872D01*
X-4644677Y-11651982D01*
X-4676585Y-11750903D01*
X-4708637Y-11855606D01*
X-4739710Y-11962065D01*
X-4768679Y-12066251D01*
X-4794420Y-12164138D01*
X-4815810Y-12251699D01*
X-4831725Y-12324905D01*
X-4840131Y-12373000D01*
X-4847520Y-12424955D01*
X-5046075Y-12424955D01*
X-5044015Y-12413679D01*
X-5014021Y-12277895D01*
X-4977987Y-12134579D01*
X-4937263Y-11988214D01*
X-4893199Y-11843280D01*
X-4847145Y-11704259D01*
X-4800451Y-11575634D01*
X-4754467Y-11461884D01*
X-4719713Y-11385864D01*
X-4658059Y-11267946D01*
X-4596723Y-11168982D01*
X-4532371Y-11085122D01*
X-4461670Y-11012519D01*
X-4381284Y-10947326D01*
X-4287879Y-10885694D01*
X-4284469Y-10883636D01*
X-4208141Y-10839197D01*
X-4124127Y-10792892D01*
X-4035292Y-10746070D01*
X-3944499Y-10700078D01*
X-3854612Y-10656264D01*
X-3768494Y-10615976D01*
X-3689010Y-10580561D01*
X-3619022Y-10551367D01*
X-3561395Y-10529741D01*
X-3518992Y-10517032D01*
X-3499362Y-10514159D01*
X-3466296Y-10523664D01*
G37*
X-3466296Y-10523664D02*
X-3425472Y-10549956D01*
X-3380557Y-10589756D01*
X-3335215Y-10639783D01*
X-3293111Y-10696757D01*
X-3289942Y-10701596D01*
X-3237924Y-10796413D01*
X-3202204Y-10897216D01*
X-3181304Y-11009045D01*
X-3174774Y-11094681D01*
X-3175931Y-11209248D01*
X-3189351Y-11321581D01*
X-3216082Y-11435794D01*
X-3257175Y-11555997D01*
X-3313681Y-11686303D01*
X-3339399Y-11739296D01*
X-3403142Y-11859769D01*
X-3469658Y-11968976D01*
X-3543043Y-12072659D01*
X-3627388Y-12176559D01*
X-3726789Y-12286419D01*
X-3737715Y-12297955D01*
X-3792769Y-12358485D01*
X-3837070Y-12414305D01*
X-3875927Y-12473053D01*
X-3914651Y-12542367D01*
X-3934247Y-12580633D01*
X-3957622Y-12624872D01*
X-3979290Y-12661823D01*
X-3995978Y-12686075D01*
X-4001495Y-12691794D01*
X-4009026Y-12701978D01*
X-4015039Y-12722308D01*
X-4019996Y-12755972D01*
X-4024357Y-12806161D01*
X-4028584Y-12876065D01*
X-4028834Y-12880773D01*
X-4033688Y-12948189D01*
X-4041691Y-13031408D01*
X-4052058Y-13123477D01*
X-4064000Y-13217445D01*
X-4076734Y-13306362D01*
X-4077639Y-13312248D01*
X-4090148Y-13393988D01*
X-4102316Y-13475023D01*
X-4113381Y-13550149D01*
X-4122578Y-13614168D01*
X-4129143Y-13661879D01*
X-4130285Y-13670658D01*
X-4143089Y-13751564D01*
X-4161502Y-13841748D01*
X-4184028Y-13935662D01*
X-4209171Y-14027758D01*
X-4235436Y-14112490D01*
X-4261327Y-14184307D01*
X-4280713Y-14228632D01*
X-4310409Y-14283915D01*
X-4339266Y-14325083D01*
X-4373292Y-14360074D01*
X-4392630Y-14376523D01*
X-4429640Y-14405430D01*
X-4463939Y-14430118D01*
X-4487868Y-14445106D01*
X-4530568Y-14461064D01*
X-4575794Y-14468573D01*
X-4613668Y-14466261D01*
X-4621557Y-14463689D01*
X-4643321Y-14448701D01*
X-4674997Y-14419703D01*
X-4712553Y-14381086D01*
X-4751955Y-14337245D01*
X-4789170Y-14292573D01*
X-4820166Y-14251462D01*
X-4830525Y-14236057D01*
X-4848826Y-14204654D01*
X-4874156Y-14157334D01*
X-4903907Y-14099162D01*
X-4935471Y-14035206D01*
X-4955910Y-13992537D01*
X-5016514Y-13854433D01*
X-5062370Y-13725957D01*
X-5095319Y-13600669D01*
X-5117198Y-13472130D01*
X-5124929Y-13400546D01*
X-5128833Y-13338905D01*
X-5131107Y-13264076D01*
X-5131833Y-13181398D01*
X-5131093Y-13096210D01*
X-5128969Y-13013852D01*
X-5126462Y-12959565D01*
X-4913234Y-12959565D01*
X-4913208Y-13056142D01*
X-4911925Y-13140773D01*
X-4910033Y-13227831D01*
X-4907951Y-13296215D01*
X-4905234Y-13350342D01*
X-4901437Y-13394627D01*
X-4896114Y-13433487D01*
X-4888821Y-13471336D01*
X-4879113Y-13512592D01*
X-4871372Y-13543030D01*
X-4850126Y-13612845D01*
X-4819555Y-13696534D01*
X-4782257Y-13788201D01*
X-4740834Y-13881947D01*
X-4697886Y-13971875D01*
X-4656012Y-14052088D01*
X-4619834Y-14113548D01*
X-4590926Y-14155324D01*
X-4559168Y-14195820D01*
X-4528077Y-14231180D01*
X-4501169Y-14257548D01*
X-4481961Y-14271067D01*
X-4475773Y-14271525D01*
X-4468102Y-14258303D01*
X-4456307Y-14228401D01*
X-4442503Y-14187372D01*
X-4437359Y-14170648D01*
X-4406873Y-14061729D01*
X-4380752Y-13951428D01*
X-4357529Y-13832846D01*
X-4335738Y-13699086D01*
X-4332567Y-13677725D01*
X-4320329Y-13594307D01*
X-4306300Y-13498512D01*
X-4292010Y-13400816D01*
X-4278993Y-13311693D01*
X-4275955Y-13290864D01*
X-4260688Y-13173613D01*
X-4248224Y-13049301D01*
X-4238421Y-12915177D01*
X-4231134Y-12768486D01*
X-4226222Y-12606478D01*
X-4223542Y-12426400D01*
X-4222909Y-12268873D01*
X-4222909Y-11882626D01*
X-4265543Y-11945972D01*
X-4288917Y-11976592D01*
X-4325887Y-12020034D01*
X-4373439Y-12073081D01*
X-4428559Y-12132516D01*
X-4488233Y-12195120D01*
X-4549447Y-12257676D01*
X-4609188Y-12316966D01*
X-4648254Y-12354555D01*
X-4681603Y-12388368D01*
X-4723145Y-12433721D01*
X-4766880Y-12483936D01*
X-4796873Y-12519983D01*
X-4883828Y-12626994D01*
X-4900517Y-12751111D01*
X-4907003Y-12810978D01*
X-4911203Y-12879153D01*
X-4913234Y-12959565D01*
X-5126462Y-12959565D01*
X-5125542Y-12939661D01*
X-5120893Y-12878979D01*
X-5116410Y-12844095D01*
X-5109088Y-12801416D01*
X-5228839Y-12852065D01*
X-5291531Y-12877191D01*
X-5360296Y-12902548D01*
X-5424398Y-12924258D01*
X-5452500Y-12932869D01*
X-5503676Y-12946287D01*
X-5563155Y-12959645D01*
X-5625754Y-12972038D01*
X-5686290Y-12982562D01*
X-5739581Y-12990310D01*
X-5780444Y-12994378D01*
X-5802784Y-12994057D01*
X-5803414Y-12986766D01*
X-5788353Y-12970651D01*
X-5761780Y-12948653D01*
X-5727875Y-12923711D01*
X-5690818Y-12898764D01*
X-5654788Y-12876753D01*
X-5623965Y-12860617D01*
X-5602673Y-12853314D01*
X-5476945Y-12834676D01*
X-5367126Y-12814241D01*
X-5274677Y-12792396D01*
X-5201055Y-12769531D01*
X-5147718Y-12746034D01*
X-5117740Y-12724108D01*
X-5106003Y-12707511D01*
X-5095853Y-12682916D01*
X-5086213Y-12646394D01*
X-5076009Y-12594018D01*
X-5066619Y-12537451D01*
X-5046075Y-12424955D01*
X-4847520Y-12424955D01*
X-4684624Y-12259745D01*
X-4602415Y-12173881D01*
X-4535060Y-12097309D01*
X-4479074Y-12025293D01*
X-4430969Y-11953098D01*
X-4387258Y-11875988D01*
X-4355724Y-11813046D01*
X-4328945Y-11750524D01*
X-4300134Y-11671902D01*
X-4271381Y-11583799D01*
X-4244778Y-11492834D01*
X-4222415Y-11405625D01*
X-4211889Y-11357787D01*
X-4199295Y-11308591D01*
X-4184555Y-11279135D01*
X-4165594Y-11266070D01*
X-4154136Y-11264636D01*
X-4135142Y-11258305D01*
X-4104348Y-11241708D01*
X-4068446Y-11218455D01*
X-4033770Y-11195357D01*
X-4005659Y-11178795D01*
X-3990075Y-11172277D01*
X-3989904Y-11172273D01*
X-3986309Y-11183291D01*
X-3984092Y-11214331D01*
X-3983181Y-11262366D01*
X-3983506Y-11324372D01*
X-3984996Y-11397324D01*
X-3987579Y-11478198D01*
X-3991185Y-11563969D01*
X-3995744Y-11651612D01*
X-4001184Y-11738101D01*
X-4004095Y-11778409D01*
X-4006949Y-11826180D01*
X-4009398Y-11886519D01*
X-4011418Y-11955994D01*
X-4012988Y-12031175D01*
X-4014084Y-12108630D01*
X-4014683Y-12184930D01*
X-4014764Y-12256642D01*
X-4014303Y-12320336D01*
X-4013278Y-12372581D01*
X-4011666Y-12409946D01*
X-4009445Y-12429000D01*
X-4008406Y-12430727D01*
X-3997391Y-12423132D01*
X-3975631Y-12403431D01*
X-3953565Y-12381659D01*
X-3881982Y-12305072D01*
X-3808956Y-12220520D01*
X-3741669Y-12136524D01*
X-3703330Y-12084740D01*
X-3655569Y-12011275D01*
X-3604728Y-11922413D01*
X-3554186Y-11824925D01*
X-3507321Y-11725584D01*
X-3467511Y-11631162D01*
X-3442321Y-11561598D01*
X-3424634Y-11505449D01*
X-3412369Y-11459551D01*
X-3404306Y-11416515D01*
X-3399224Y-11368954D01*
X-3395904Y-11309481D01*
X-3394488Y-11271943D01*
X-3393287Y-11179639D01*
X-3397599Y-11103403D01*
X-3408634Y-11036614D01*
X-3427606Y-10972653D01*
X-3455726Y-10904901D01*
X-3465499Y-10884153D01*
X-3494278Y-10833671D01*
X-3531491Y-10781643D01*
X-3572630Y-10733267D01*
X-3613185Y-10693738D01*
X-3648646Y-10668254D01*
X-3655826Y-10664834D01*
X-3672453Y-10660408D01*
X-3693116Y-10660476D01*
X-3720220Y-10665909D01*
X-3756174Y-10677577D01*
X-3803385Y-10696351D01*
X-3864260Y-10723098D01*
X-3941207Y-10758691D01*
X-4023330Y-10797640D01*
X-4098401Y-10834465D01*
X-4156293Y-10865382D01*
X-4201299Y-10892984D01*
X-4237709Y-10919863D01*
X-4263927Y-10942961D01*
X-4337492Y-11024182D01*
X-4409644Y-11126850D01*
X-4479458Y-11249326D01*
X-4546008Y-11389972D01*
X-4608368Y-11547148D01*
X-4614038Y-11562872D01*
X-4644677Y-11651982D01*
X-4676585Y-11750903D01*
X-4708637Y-11855606D01*
X-4739710Y-11962065D01*
X-4768679Y-12066251D01*
X-4794420Y-12164138D01*
X-4815810Y-12251699D01*
X-4831725Y-12324905D01*
X-4840131Y-12373000D01*
X-4847520Y-12424955D01*
X-5046075Y-12424955D01*
X-5044015Y-12413679D01*
X-5014021Y-12277895D01*
X-4977987Y-12134579D01*
X-4937263Y-11988214D01*
X-4893199Y-11843280D01*
X-4847145Y-11704259D01*
X-4800451Y-11575634D01*
X-4754467Y-11461884D01*
X-4719713Y-11385864D01*
X-4658059Y-11267946D01*
X-4596723Y-11168982D01*
X-4532371Y-11085122D01*
X-4461670Y-11012519D01*
X-4381284Y-10947326D01*
X-4287879Y-10885694D01*
X-4284469Y-10883636D01*
X-4208141Y-10839197D01*
X-4124127Y-10792892D01*
X-4035292Y-10746070D01*
X-3944499Y-10700078D01*
X-3854612Y-10656264D01*
X-3768494Y-10615976D01*
X-3689010Y-10580561D01*
X-3619022Y-10551367D01*
X-3561395Y-10529741D01*
X-3518992Y-10517032D01*
X-3499362Y-10514159D01*
X-3466296Y-10523664D01*
D12*
%TO.C,JP4*%
X-6000000Y-43100000D02*
G75*
G02*
X-5300000Y-42400000I700000J0D01*
G01*
X-5300000Y-44400000D02*
G75*
G02*
X-6000000Y-43700000I0J700000D01*
G01*
X-3200000Y-43700000D02*
G75*
G02*
X-3900000Y-44400000I-700000J0D01*
G01*
X-3900000Y-42400000D02*
G75*
G02*
X-3200000Y-43100000I0J-700000D01*
G01*
X-6000000Y-43700000D02*
X-6000000Y-43100000D01*
X-3900000Y-44400000D02*
X-5300000Y-44400000D01*
X-3200000Y-43100000D02*
X-3200000Y-43700000D01*
X-5300000Y-42400000D02*
X-3900000Y-42400000D01*
%TO.C,JP3*%
X-6600000Y-42700000D02*
G75*
G02*
X-7300000Y-43400000I-700000J0D01*
G01*
X-7300000Y-41400000D02*
G75*
G02*
X-6600000Y-42100000I0J-700000D01*
G01*
X-9400000Y-42100000D02*
G75*
G02*
X-8700000Y-41400000I700000J0D01*
G01*
X-8700000Y-43400000D02*
G75*
G02*
X-9400000Y-42700000I0J700000D01*
G01*
X-6600000Y-42100000D02*
X-6600000Y-42700000D01*
X-8700000Y-41400000D02*
X-7300000Y-41400000D01*
X-9400000Y-42700000D02*
X-9400000Y-42100000D01*
X-7300000Y-43400000D02*
X-8700000Y-43400000D01*
%TO.C,JP2*%
X-6000000Y-40500000D02*
G75*
G02*
X-5300000Y-39800000I700000J0D01*
G01*
X-5300000Y-41800000D02*
G75*
G02*
X-6000000Y-41100000I0J700000D01*
G01*
X-3200000Y-41100000D02*
G75*
G02*
X-3900000Y-41800000I-700000J0D01*
G01*
X-3900000Y-39800000D02*
G75*
G02*
X-3200000Y-40500000I0J-700000D01*
G01*
X-6000000Y-41100000D02*
X-6000000Y-40500000D01*
X-3900000Y-41800000D02*
X-5300000Y-41800000D01*
X-3200000Y-40500000D02*
X-3200000Y-41100000D01*
X-5300000Y-39800000D02*
X-3900000Y-39800000D01*
%TO.C,U2*%
X-9810000Y-37700000D02*
X-9810000Y-40650000D01*
%TO.C,U1*%
X-18200000Y-37290000D02*
X-21150000Y-37290000D01*
%TO.C,R1*%
X-19722500Y-35145276D02*
X-19722500Y-35654724D01*
X-18677500Y-35145276D02*
X-18677500Y-35654724D01*
%TO.C,R2*%
X-20277500Y-35145276D02*
X-20277500Y-35654724D01*
X-21322500Y-35145276D02*
X-21322500Y-35654724D01*
%TO.C,C1*%
X-14810000Y-39046267D02*
X-14810000Y-38753733D01*
X-13790000Y-39046267D02*
X-13790000Y-38753733D01*
%TO.C,C2*%
X-4990000Y-37946267D02*
X-4990000Y-37653733D01*
X-6010000Y-37946267D02*
X-6010000Y-37653733D01*
%TO.C,R3*%
X-16422500Y-38645276D02*
X-16422500Y-39154724D01*
X-15377500Y-38645276D02*
X-15377500Y-39154724D01*
%TO.C,C3*%
X-3190000Y-37946267D02*
X-3190000Y-37653733D01*
X-4210000Y-37946267D02*
X-4210000Y-37653733D01*
%TO.C,TP1*%
X-14300000Y-36500000D02*
G75*
G03*
X-14300000Y-36500000I-700000J0D01*
G01*
%TO.C,TP2*%
X-16900000Y-36300000D02*
G75*
G03*
X-16900000Y-36300000I-700000J0D01*
G01*
%TO.C,TP3*%
X-20700000Y-41200000D02*
G75*
G03*
X-20700000Y-41200000I-700000J0D01*
G01*
%TO.C,TP4*%
X-16700000Y-42100000D02*
G75*
G03*
X-16700000Y-42100000I-700000J0D01*
G01*
%TO.C,TP5*%
X-11800000Y-37900000D02*
G75*
G03*
X-11800000Y-37900000I-700000J0D01*
G01*
%TO.C,JP1*%
X-12500000Y-39000000D02*
X-11100000Y-39000000D01*
X-10400000Y-39700000D02*
X-10400000Y-40300000D01*
X-11100000Y-41000000D02*
X-12500000Y-41000000D01*
X-13200000Y-40300000D02*
X-13200000Y-39700000D01*
X-11100000Y-39000000D02*
G75*
G02*
X-10400000Y-39700000I0J-700000D01*
G01*
X-10400000Y-40300000D02*
G75*
G02*
X-11100000Y-41000000I-700000J0D01*
G01*
X-12500000Y-41000000D02*
G75*
G02*
X-13200000Y-40300000I0J700000D01*
G01*
X-13200000Y-39700000D02*
G75*
G02*
X-12500000Y-39000000I700000J0D01*
G01*
%TO.C,JP4*%
D10*
X-2747620Y-44233333D02*
X-2033334Y-44233333D01*
X-1890477Y-44280952D01*
X-1795239Y-44376190D01*
X-1747620Y-44519047D01*
X-1747620Y-44614285D01*
X-1747620Y-43757142D02*
X-2747620Y-43757142D01*
X-2747620Y-43376190D01*
X-2700000Y-43280952D01*
X-2652381Y-43233333D01*
X-2557143Y-43185714D01*
X-2414286Y-43185714D01*
X-2319048Y-43233333D01*
X-2271429Y-43280952D01*
X-2223810Y-43376190D01*
X-2223810Y-43757142D01*
X-2414286Y-42328571D02*
X-1747620Y-42328571D01*
X-2795239Y-42566666D02*
X-2080953Y-42804761D01*
X-2080953Y-42185714D01*
%TO.C,JP3*%
X-8833334Y-43652380D02*
X-8833334Y-44366666D01*
X-8880953Y-44509523D01*
X-8976191Y-44604761D01*
X-9119048Y-44652380D01*
X-9214286Y-44652380D01*
X-8357143Y-44652380D02*
X-8357143Y-43652380D01*
X-7976191Y-43652380D01*
X-7880953Y-43700000D01*
X-7833334Y-43747619D01*
X-7785715Y-43842857D01*
X-7785715Y-43985714D01*
X-7833334Y-44080952D01*
X-7880953Y-44128571D01*
X-7976191Y-44176190D01*
X-8357143Y-44176190D01*
X-7452381Y-43652380D02*
X-6833334Y-43652380D01*
X-7166667Y-44033333D01*
X-7023810Y-44033333D01*
X-6928572Y-44080952D01*
X-6880953Y-44128571D01*
X-6833334Y-44223809D01*
X-6833334Y-44461904D01*
X-6880953Y-44557142D01*
X-6928572Y-44604761D01*
X-7023810Y-44652380D01*
X-7309524Y-44652380D01*
X-7404762Y-44604761D01*
X-7452381Y-44557142D01*
%TO.C,JP2*%
X-2747620Y-41333333D02*
X-2033334Y-41333333D01*
X-1890477Y-41380952D01*
X-1795239Y-41476190D01*
X-1747620Y-41619047D01*
X-1747620Y-41714285D01*
X-1747620Y-40857142D02*
X-2747620Y-40857142D01*
X-2747620Y-40476190D01*
X-2700000Y-40380952D01*
X-2652381Y-40333333D01*
X-2557143Y-40285714D01*
X-2414286Y-40285714D01*
X-2319048Y-40333333D01*
X-2271429Y-40380952D01*
X-2223810Y-40476190D01*
X-2223810Y-40857142D01*
X-2652381Y-39904761D02*
X-2700000Y-39857142D01*
X-2747620Y-39761904D01*
X-2747620Y-39523809D01*
X-2700000Y-39428571D01*
X-2652381Y-39380952D01*
X-2557143Y-39333333D01*
X-2461905Y-39333333D01*
X-2319048Y-39380952D01*
X-1747620Y-39952380D01*
X-1747620Y-39333333D01*
%TO.C,U2*%
X-11047620Y-38761904D02*
X-10238096Y-38761904D01*
X-10142858Y-38714285D01*
X-10095239Y-38666666D01*
X-10047620Y-38571428D01*
X-10047620Y-38380952D01*
X-10095239Y-38285714D01*
X-10142858Y-38238095D01*
X-10238096Y-38190476D01*
X-11047620Y-38190476D01*
X-10952381Y-37761904D02*
X-11000000Y-37714285D01*
X-11047620Y-37619047D01*
X-11047620Y-37380952D01*
X-11000000Y-37285714D01*
X-10952381Y-37238095D01*
X-10857143Y-37190476D01*
X-10761905Y-37190476D01*
X-10619048Y-37238095D01*
X-10047620Y-37809523D01*
X-10047620Y-37190476D01*
%TO.C,U1*%
X-19861905Y-40852380D02*
X-19861905Y-41661904D01*
X-19814286Y-41757142D01*
X-19766667Y-41804761D01*
X-19671429Y-41852380D01*
X-19480953Y-41852380D01*
X-19385715Y-41804761D01*
X-19338096Y-41757142D01*
X-19290477Y-41661904D01*
X-19290477Y-40852380D01*
X-18290477Y-41852380D02*
X-18861905Y-41852380D01*
X-18576191Y-41852380D02*
X-18576191Y-40852380D01*
X-18671429Y-40995238D01*
X-18766667Y-41090476D01*
X-18861905Y-41138095D01*
%TO.C,R1*%
X-18747620Y-32966666D02*
X-19223810Y-33300000D01*
X-18747620Y-33538095D02*
X-19747620Y-33538095D01*
X-19747620Y-33157142D01*
X-19700000Y-33061904D01*
X-19652381Y-33014285D01*
X-19557143Y-32966666D01*
X-19414286Y-32966666D01*
X-19319048Y-33014285D01*
X-19271429Y-33061904D01*
X-19223810Y-33157142D01*
X-19223810Y-33538095D01*
X-18747620Y-32014285D02*
X-18747620Y-32585714D01*
X-18747620Y-32300000D02*
X-19747620Y-32300000D01*
X-19604762Y-32395238D01*
X-19509524Y-32490476D01*
X-19461905Y-32585714D01*
%TO.C,R2*%
X-20347620Y-32966666D02*
X-20823810Y-33300000D01*
X-20347620Y-33538095D02*
X-21347620Y-33538095D01*
X-21347620Y-33157142D01*
X-21300000Y-33061904D01*
X-21252381Y-33014285D01*
X-21157143Y-32966666D01*
X-21014286Y-32966666D01*
X-20919048Y-33014285D01*
X-20871429Y-33061904D01*
X-20823810Y-33157142D01*
X-20823810Y-33538095D01*
X-21252381Y-32585714D02*
X-21300000Y-32538095D01*
X-21347620Y-32442857D01*
X-21347620Y-32204761D01*
X-21300000Y-32109523D01*
X-21252381Y-32061904D01*
X-21157143Y-32014285D01*
X-21061905Y-32014285D01*
X-20919048Y-32061904D01*
X-20347620Y-32633333D01*
X-20347620Y-32014285D01*
%TO.C,C1*%
X-13942858Y-41666666D02*
X-13895239Y-41714285D01*
X-13847620Y-41857142D01*
X-13847620Y-41952380D01*
X-13895239Y-42095238D01*
X-13990477Y-42190476D01*
X-14085715Y-42238095D01*
X-14276191Y-42285714D01*
X-14419048Y-42285714D01*
X-14609524Y-42238095D01*
X-14704762Y-42190476D01*
X-14800000Y-42095238D01*
X-14847620Y-41952380D01*
X-14847620Y-41857142D01*
X-14800000Y-41714285D01*
X-14752381Y-41666666D01*
X-13847620Y-40714285D02*
X-13847620Y-41285714D01*
X-13847620Y-41000000D02*
X-14847620Y-41000000D01*
X-14704762Y-41095238D01*
X-14609524Y-41190476D01*
X-14561905Y-41285714D01*
%TO.C,C2*%
X-5142858Y-35366666D02*
X-5095239Y-35414285D01*
X-5047620Y-35557142D01*
X-5047620Y-35652380D01*
X-5095239Y-35795238D01*
X-5190477Y-35890476D01*
X-5285715Y-35938095D01*
X-5476191Y-35985714D01*
X-5619048Y-35985714D01*
X-5809524Y-35938095D01*
X-5904762Y-35890476D01*
X-6000000Y-35795238D01*
X-6047620Y-35652380D01*
X-6047620Y-35557142D01*
X-6000000Y-35414285D01*
X-5952381Y-35366666D01*
X-5952381Y-34985714D02*
X-6000000Y-34938095D01*
X-6047620Y-34842857D01*
X-6047620Y-34604761D01*
X-6000000Y-34509523D01*
X-5952381Y-34461904D01*
X-5857143Y-34414285D01*
X-5761905Y-34414285D01*
X-5619048Y-34461904D01*
X-5047620Y-35033333D01*
X-5047620Y-34414285D01*
%TO.C,R3*%
X-15447620Y-41666666D02*
X-15923810Y-42000000D01*
X-15447620Y-42238095D02*
X-16447620Y-42238095D01*
X-16447620Y-41857142D01*
X-16400000Y-41761904D01*
X-16352381Y-41714285D01*
X-16257143Y-41666666D01*
X-16114286Y-41666666D01*
X-16019048Y-41714285D01*
X-15971429Y-41761904D01*
X-15923810Y-41857142D01*
X-15923810Y-42238095D01*
X-16447620Y-41333333D02*
X-16447620Y-40714285D01*
X-16066667Y-41047619D01*
X-16066667Y-40904761D01*
X-16019048Y-40809523D01*
X-15971429Y-40761904D01*
X-15876191Y-40714285D01*
X-15638096Y-40714285D01*
X-15542858Y-40761904D01*
X-15495239Y-40809523D01*
X-15447620Y-40904761D01*
X-15447620Y-41190476D01*
X-15495239Y-41285714D01*
X-15542858Y-41333333D01*
%TO.C,C3*%
X-3342858Y-35366666D02*
X-3295239Y-35414285D01*
X-3247620Y-35557142D01*
X-3247620Y-35652380D01*
X-3295239Y-35795238D01*
X-3390477Y-35890476D01*
X-3485715Y-35938095D01*
X-3676191Y-35985714D01*
X-3819048Y-35985714D01*
X-4009524Y-35938095D01*
X-4104762Y-35890476D01*
X-4200000Y-35795238D01*
X-4247620Y-35652380D01*
X-4247620Y-35557142D01*
X-4200000Y-35414285D01*
X-4152381Y-35366666D01*
X-4247620Y-35033333D02*
X-4247620Y-34414285D01*
X-3866667Y-34747619D01*
X-3866667Y-34604761D01*
X-3819048Y-34509523D01*
X-3771429Y-34461904D01*
X-3676191Y-34414285D01*
X-3438096Y-34414285D01*
X-3342858Y-34461904D01*
X-3295239Y-34509523D01*
X-3247620Y-34604761D01*
X-3247620Y-34890476D01*
X-3295239Y-34985714D01*
X-3342858Y-35033333D01*
%TD*%
M02*
