%TF.GenerationSoftware,KiCad,Pcbnew,5.1.9*%
%TF.CreationDate,2021-01-01T13:20:52-05:00*%
%TF.ProjectId,card_lights,63617264-5f6c-4696-9768-74732e6b6963,rev?*%
%TF.SameCoordinates,PX754d4c0PY5e69ec0*%
%TF.FileFunction,Legend,Bot*%
%TF.FilePolarity,Positive*%
%FSLAX46Y46*%
G04 Gerber Fmt 4.6, Leading zero omitted, Abs format (unit mm)*
G04 Created by KiCad (PCBNEW 5.1.9) date 2021-01-01 13:20:52*
%MOMM*%
%LPD*%
G01*
G04 APERTURE LIST*
%ADD10C,0.120000*%
%ADD11C,0.150000*%
G04 APERTURE END LIST*
D10*
X-2016351Y-40226495D02*
G75*
G02*
X-22000000Y-42400000I-11983649J17226495D01*
G01*
X-2000001Y-37749999D02*
G75*
G02*
X-21999999Y-40250000I-11999999J14749999D01*
G01*
X-2029375Y-35070797D02*
G75*
G02*
X-22000000Y-38000000I-11970625J12070797D01*
G01*
X-1992269Y-32005798D02*
G75*
G02*
X-22000000Y-35700000I-12007731J9005798D01*
G01*
X-3345666Y-30453032D02*
G75*
G02*
X-22000000Y-33250000I-10654334J7453032D01*
G01*
X-4501962Y-28548854D02*
G75*
G02*
X-22000000Y-30550000I-9498038J5548854D01*
G01*
X-5440598Y-25753024D02*
G75*
G02*
X-21950000Y-27200000I-8559402J2753024D01*
G01*
X-21993305Y-3566277D02*
G75*
G02*
X-2000000Y-5750000I7993305J-19433723D01*
G01*
X-22000000Y-5750000D02*
G75*
G02*
X-2000000Y-8250000I8000000J-17250000D01*
G01*
X-22002802Y-7994746D02*
G75*
G02*
X-2000000Y-10950000I8002802J-15005254D01*
G01*
X-21958981Y-10285653D02*
G75*
G02*
X-2000000Y-14000000I7958981J-12714347D01*
G01*
X-21996746Y-12754169D02*
G75*
G02*
X-3350000Y-15550000I7996746J-10245831D01*
G01*
X-21976724Y-15422113D02*
G75*
G02*
X-4500000Y-17450000I7976724J-7577887D01*
G01*
X-21986199Y-18857159D02*
G75*
G02*
X-5450000Y-20200000I7986199J-4142841D01*
G01*
X-11000000Y-23000000D02*
G75*
G03*
X-11000000Y-23000000I-3000000J0D01*
G01*
X-7000000Y-23000000D02*
G75*
G03*
X-7000000Y-23000000I-7000000J0D01*
G01*
X-9000000Y-23000000D02*
G75*
G03*
X-9000000Y-23000000I-5000000J0D01*
G01*
D11*
X-11928572Y-22452380D02*
X-12500000Y-22452380D01*
X-12214286Y-23452380D02*
X-12214286Y-22452380D01*
X-12976191Y-23452380D02*
X-12880953Y-23404761D01*
X-12833334Y-23357142D01*
X-12785715Y-23261904D01*
X-12785715Y-22976190D01*
X-12833334Y-22880952D01*
X-12880953Y-22833333D01*
X-12976191Y-22785714D01*
X-13119048Y-22785714D01*
X-13214286Y-22833333D01*
X-13261905Y-22880952D01*
X-13309524Y-22976190D01*
X-13309524Y-23261904D01*
X-13261905Y-23357142D01*
X-13214286Y-23404761D01*
X-13119048Y-23452380D01*
X-12976191Y-23452380D01*
X-14166667Y-22785714D02*
X-14166667Y-23452380D01*
X-13738096Y-22785714D02*
X-13738096Y-23309523D01*
X-13785715Y-23404761D01*
X-13880953Y-23452380D01*
X-14023810Y-23452380D01*
X-14119048Y-23404761D01*
X-14166667Y-23357142D01*
X-15071429Y-23404761D02*
X-14976191Y-23452380D01*
X-14785715Y-23452380D01*
X-14690477Y-23404761D01*
X-14642858Y-23357142D01*
X-14595239Y-23261904D01*
X-14595239Y-22976190D01*
X-14642858Y-22880952D01*
X-14690477Y-22833333D01*
X-14785715Y-22785714D01*
X-14976191Y-22785714D01*
X-15071429Y-22833333D01*
X-15500000Y-23452380D02*
X-15500000Y-22452380D01*
X-15928572Y-23452380D02*
X-15928572Y-22928571D01*
X-15880953Y-22833333D01*
X-15785715Y-22785714D01*
X-15642858Y-22785714D01*
X-15547620Y-22833333D01*
X-15500000Y-22880952D01*
D10*
X-1999999Y-31999999D02*
X-2000000Y-43000000D01*
X-1999999Y-31999999D02*
G75*
G02*
X-1999999Y-14000001I8999999J8999999D01*
G01*
X-3000000Y-2000000D02*
G75*
G02*
X-2000000Y-3000000I0J-1000000D01*
G01*
X-2000000Y-43000000D02*
G75*
G02*
X-3000000Y-44000000I-1000000J0D01*
G01*
X-21000000Y-44000000D02*
G75*
G02*
X-22000000Y-43000000I0J1000000D01*
G01*
X-22000000Y-3000000D02*
G75*
G02*
X-21000000Y-2000000I1000000J0D01*
G01*
X-22000000Y-43000000D02*
X-22000000Y-3000000D01*
X-3000000Y-44000000D02*
X-21000000Y-44000000D01*
X-2000000Y-3000000D02*
X-1999999Y-14000001D01*
X-21000000Y-2000000D02*
X-3000000Y-2000000D01*
M02*
