%TF.GenerationSoftware,KiCad,Pcbnew,5.1.8*%
%TF.CreationDate,2020-12-20T08:32:04-05:00*%
%TF.ProjectId,card_lights,63617264-5f6c-4696-9768-74732e6b6963,rev?*%
%TF.SameCoordinates,PX754d4c0PY5e69ec0*%
%TF.FileFunction,Copper,L1,Top*%
%TF.FilePolarity,Positive*%
%FSLAX46Y46*%
G04 Gerber Fmt 4.6, Leading zero omitted, Abs format (unit mm)*
G04 Created by KiCad (PCBNEW 5.1.8) date 2020-12-20 08:32:04*
%MOMM*%
%LPD*%
G01*
G04 APERTURE LIST*
%TA.AperFunction,SMDPad,CuDef*%
%ADD10C,17.780001*%
%TD*%
%TA.AperFunction,SMDPad,CuDef*%
%ADD11R,5.080000X2.540000*%
%TD*%
%TA.AperFunction,SMDPad,CuDef*%
%ADD12R,0.650000X1.560000*%
%TD*%
%TA.AperFunction,SMDPad,CuDef*%
%ADD13R,1.560000X0.650000*%
%TD*%
%TA.AperFunction,ComponentPad*%
%ADD14C,2.000000*%
%TD*%
%TA.AperFunction,SMDPad,CuDef*%
%ADD15R,4.000000X4.000000*%
%TD*%
%TA.AperFunction,Conductor*%
%ADD16C,0.500000*%
%TD*%
%TA.AperFunction,Conductor*%
%ADD17C,0.250000*%
%TD*%
%TA.AperFunction,Conductor*%
%ADD18C,0.300000*%
%TD*%
%TA.AperFunction,Conductor*%
%ADD19C,0.254000*%
%TD*%
%TA.AperFunction,Conductor*%
%ADD20C,0.100000*%
%TD*%
G04 APERTURE END LIST*
D10*
%TO.P,BT1,2*%
%TO.N,GND*%
X-11500000Y-23000000D03*
D11*
%TO.P,BT1,3*%
%TO.N,N/C*%
X-11627000Y-11570000D03*
%TO.P,BT1,1*%
%TO.N,+3V0*%
X-11627000Y-34430000D03*
%TD*%
%TO.P,R1,1*%
%TO.N,Net-(J2-Pad1)*%
%TA.AperFunction,SMDPad,CuDef*%
G36*
G01*
X-19437500Y-34000000D02*
X-18962500Y-34000000D01*
G75*
G02*
X-18725000Y-34237500I0J-237500D01*
G01*
X-18725000Y-34737500D01*
G75*
G02*
X-18962500Y-34975000I-237500J0D01*
G01*
X-19437500Y-34975000D01*
G75*
G02*
X-19675000Y-34737500I0J237500D01*
G01*
X-19675000Y-34237500D01*
G75*
G02*
X-19437500Y-34000000I237500J0D01*
G01*
G37*
%TD.AperFunction*%
%TO.P,R1,2*%
%TO.N,/PB0*%
%TA.AperFunction,SMDPad,CuDef*%
G36*
G01*
X-19437500Y-35825000D02*
X-18962500Y-35825000D01*
G75*
G02*
X-18725000Y-36062500I0J-237500D01*
G01*
X-18725000Y-36562500D01*
G75*
G02*
X-18962500Y-36800000I-237500J0D01*
G01*
X-19437500Y-36800000D01*
G75*
G02*
X-19675000Y-36562500I0J237500D01*
G01*
X-19675000Y-36062500D01*
G75*
G02*
X-19437500Y-35825000I237500J0D01*
G01*
G37*
%TD.AperFunction*%
%TD*%
%TO.P,R2,2*%
%TO.N,/PB1*%
%TA.AperFunction,SMDPad,CuDef*%
G36*
G01*
X-21037500Y-35825000D02*
X-20562500Y-35825000D01*
G75*
G02*
X-20325000Y-36062500I0J-237500D01*
G01*
X-20325000Y-36562500D01*
G75*
G02*
X-20562500Y-36800000I-237500J0D01*
G01*
X-21037500Y-36800000D01*
G75*
G02*
X-21275000Y-36562500I0J237500D01*
G01*
X-21275000Y-36062500D01*
G75*
G02*
X-21037500Y-35825000I237500J0D01*
G01*
G37*
%TD.AperFunction*%
%TO.P,R2,1*%
%TO.N,Net-(J3-Pad1)*%
%TA.AperFunction,SMDPad,CuDef*%
G36*
G01*
X-21037500Y-34000000D02*
X-20562500Y-34000000D01*
G75*
G02*
X-20325000Y-34237500I0J-237500D01*
G01*
X-20325000Y-34737500D01*
G75*
G02*
X-20562500Y-34975000I-237500J0D01*
G01*
X-21037500Y-34975000D01*
G75*
G02*
X-21275000Y-34737500I0J237500D01*
G01*
X-21275000Y-34237500D01*
G75*
G02*
X-21037500Y-34000000I237500J0D01*
G01*
G37*
%TD.AperFunction*%
%TD*%
%TO.P,C1,1*%
%TO.N,GND*%
%TA.AperFunction,SMDPad,CuDef*%
G36*
G01*
X-14062500Y-40300000D02*
X-14537500Y-40300000D01*
G75*
G02*
X-14775000Y-40062500I0J237500D01*
G01*
X-14775000Y-39462500D01*
G75*
G02*
X-14537500Y-39225000I237500J0D01*
G01*
X-14062500Y-39225000D01*
G75*
G02*
X-13825000Y-39462500I0J-237500D01*
G01*
X-13825000Y-40062500D01*
G75*
G02*
X-14062500Y-40300000I-237500J0D01*
G01*
G37*
%TD.AperFunction*%
%TO.P,C1,2*%
%TO.N,+3V0*%
%TA.AperFunction,SMDPad,CuDef*%
G36*
G01*
X-14062500Y-38575000D02*
X-14537500Y-38575000D01*
G75*
G02*
X-14775000Y-38337500I0J237500D01*
G01*
X-14775000Y-37737500D01*
G75*
G02*
X-14537500Y-37500000I237500J0D01*
G01*
X-14062500Y-37500000D01*
G75*
G02*
X-13825000Y-37737500I0J-237500D01*
G01*
X-13825000Y-38337500D01*
G75*
G02*
X-14062500Y-38575000I-237500J0D01*
G01*
G37*
%TD.AperFunction*%
%TD*%
%TO.P,C2,2*%
%TO.N,+3V0*%
%TA.AperFunction,SMDPad,CuDef*%
G36*
G01*
X-3862500Y-37375000D02*
X-4337500Y-37375000D01*
G75*
G02*
X-4575000Y-37137500I0J237500D01*
G01*
X-4575000Y-36537500D01*
G75*
G02*
X-4337500Y-36300000I237500J0D01*
G01*
X-3862500Y-36300000D01*
G75*
G02*
X-3625000Y-36537500I0J-237500D01*
G01*
X-3625000Y-37137500D01*
G75*
G02*
X-3862500Y-37375000I-237500J0D01*
G01*
G37*
%TD.AperFunction*%
%TO.P,C2,1*%
%TO.N,GND*%
%TA.AperFunction,SMDPad,CuDef*%
G36*
G01*
X-3862500Y-39100000D02*
X-4337500Y-39100000D01*
G75*
G02*
X-4575000Y-38862500I0J237500D01*
G01*
X-4575000Y-38262500D01*
G75*
G02*
X-4337500Y-38025000I237500J0D01*
G01*
X-3862500Y-38025000D01*
G75*
G02*
X-3625000Y-38262500I0J-237500D01*
G01*
X-3625000Y-38862500D01*
G75*
G02*
X-3862500Y-39100000I-237500J0D01*
G01*
G37*
%TD.AperFunction*%
%TD*%
%TO.P,R3,2*%
%TO.N,/PB2*%
%TA.AperFunction,SMDPad,CuDef*%
G36*
G01*
X-16137500Y-39325000D02*
X-15662500Y-39325000D01*
G75*
G02*
X-15425000Y-39562500I0J-237500D01*
G01*
X-15425000Y-40062500D01*
G75*
G02*
X-15662500Y-40300000I-237500J0D01*
G01*
X-16137500Y-40300000D01*
G75*
G02*
X-16375000Y-40062500I0J237500D01*
G01*
X-16375000Y-39562500D01*
G75*
G02*
X-16137500Y-39325000I237500J0D01*
G01*
G37*
%TD.AperFunction*%
%TO.P,R3,1*%
%TO.N,Net-(J4-Pad1)*%
%TA.AperFunction,SMDPad,CuDef*%
G36*
G01*
X-16137500Y-37500000D02*
X-15662500Y-37500000D01*
G75*
G02*
X-15425000Y-37737500I0J-237500D01*
G01*
X-15425000Y-38237500D01*
G75*
G02*
X-15662500Y-38475000I-237500J0D01*
G01*
X-16137500Y-38475000D01*
G75*
G02*
X-16375000Y-38237500I0J237500D01*
G01*
X-16375000Y-37737500D01*
G75*
G02*
X-16137500Y-37500000I237500J0D01*
G01*
G37*
%TD.AperFunction*%
%TD*%
D12*
%TO.P,U2,1*%
%TO.N,/PB3*%
X-7950000Y-39750000D03*
%TO.P,U2,2*%
%TO.N,GND*%
X-7000000Y-39750000D03*
%TO.P,U2,3*%
%TO.N,/TOUCH*%
X-6050000Y-39750000D03*
%TO.P,U2,4*%
%TO.N,Net-(U2-Pad4)*%
X-6050000Y-37050000D03*
%TO.P,U2,6*%
%TO.N,+3V0*%
X-7950000Y-37050000D03*
%TO.P,U2,5*%
X-7000000Y-37050000D03*
%TD*%
D13*
%TO.P,U1,1*%
%TO.N,/PB0*%
X-20450000Y-37950000D03*
%TO.P,U1,2*%
%TO.N,GND*%
X-20450000Y-38900000D03*
%TO.P,U1,3*%
%TO.N,/PB1*%
X-20450000Y-39850000D03*
%TO.P,U1,4*%
%TO.N,/PB2*%
X-17750000Y-39850000D03*
%TO.P,U1,6*%
%TO.N,/PB3*%
X-17750000Y-37950000D03*
%TO.P,U1,5*%
%TO.N,+3V0*%
X-17750000Y-38900000D03*
%TD*%
D14*
%TO.P,J1,1*%
%TO.N,/TOUCH*%
X-12000000Y-43400000D03*
%TD*%
D15*
%TO.P,J2,1*%
%TO.N,Net-(J2-Pad1)*%
X-12000000Y-4000000D03*
%TD*%
%TO.P,J3,1*%
%TO.N,Net-(J3-Pad1)*%
X-20000000Y-4000000D03*
%TD*%
%TO.P,J4,1*%
%TO.N,Net-(J4-Pad1)*%
X-4000000Y-4000000D03*
%TD*%
D16*
%TO.N,GND*%
X-7000000Y-39750000D02*
X-6950000Y-39750000D01*
D17*
X-7500000Y-38400000D02*
X-11200000Y-38400000D01*
X-7000000Y-38900000D02*
X-7500000Y-38400000D01*
X-7000000Y-39750000D02*
X-7000000Y-38900000D01*
D16*
X-4262500Y-38400000D02*
X-11200000Y-38400000D01*
X-4100000Y-38562500D02*
X-4262500Y-38400000D01*
X-14300000Y-39762500D02*
X-12562500Y-39762500D01*
X-11200000Y-38400000D02*
X-12562500Y-39762500D01*
X-4100000Y-38562500D02*
X-3062500Y-38562500D01*
X-3062500Y-38562500D02*
X-2400000Y-37900000D01*
X-2400000Y-32100000D02*
X-11500000Y-23000000D01*
X-2400000Y-37900000D02*
X-2400000Y-32100000D01*
X-19100000Y-40700000D02*
X-19100000Y-39220000D01*
X-19100000Y-39220000D02*
X-19420000Y-38900000D01*
X-18700000Y-41100000D02*
X-19100000Y-40700000D01*
X-19420000Y-38900000D02*
X-20450000Y-38900000D01*
X-14700000Y-41100000D02*
X-18700000Y-41100000D01*
X-14300000Y-40700000D02*
X-14700000Y-41100000D01*
X-14300000Y-39762500D02*
X-14300000Y-40700000D01*
D18*
%TO.N,+3V0*%
X-15162500Y-38900000D02*
X-14300000Y-38037500D01*
X-17750000Y-38900000D02*
X-15162500Y-38900000D01*
D16*
X-14300000Y-38037500D02*
X-14300000Y-34700000D01*
X-14030000Y-34430000D02*
X-11627000Y-34430000D01*
X-14300000Y-34700000D02*
X-14030000Y-34430000D01*
X-7000000Y-37050000D02*
X-7000000Y-34800000D01*
X-7000000Y-34800000D02*
X-7370000Y-34430000D01*
X-7950000Y-34450000D02*
X-7970000Y-34430000D01*
X-7950000Y-37050000D02*
X-7950000Y-34450000D01*
X-7970000Y-34430000D02*
X-11627000Y-34430000D01*
X-7370000Y-34430000D02*
X-7970000Y-34430000D01*
X-4100000Y-36837500D02*
X-4100000Y-35100000D01*
X-4770000Y-34430000D02*
X-11627000Y-34430000D01*
X-4100000Y-35100000D02*
X-4770000Y-34430000D01*
%TO.N,/TOUCH*%
X-6050000Y-39750000D02*
X-6050000Y-42650000D01*
X-6800000Y-43400000D02*
X-12000000Y-43400000D01*
X-6050000Y-42650000D02*
X-6800000Y-43400000D01*
%TO.N,/PB0*%
X-19200000Y-36312500D02*
X-19200000Y-37700000D01*
X-19450000Y-37950000D02*
X-20450000Y-37950000D01*
X-19200000Y-37700000D02*
X-19450000Y-37950000D01*
%TO.N,/PB1*%
X-22000000Y-36700000D02*
X-21612500Y-36312500D01*
X-21415002Y-39850000D02*
X-22000000Y-39265002D01*
X-20450000Y-39850000D02*
X-21415002Y-39850000D01*
X-22000000Y-39265002D02*
X-22000000Y-36700000D01*
X-21612500Y-36312500D02*
X-20800000Y-36312500D01*
D17*
%TO.N,/PB2*%
X-15937500Y-39850000D02*
X-15900000Y-39812500D01*
X-17750000Y-39850000D02*
X-15937500Y-39850000D01*
D18*
%TO.N,/PB3*%
X-7950000Y-40830000D02*
X-7950000Y-39750000D01*
X-8820000Y-41700000D02*
X-7950000Y-40830000D01*
X-22600000Y-40600000D02*
X-21500000Y-41700000D01*
X-18300000Y-35400000D02*
X-21548543Y-35400000D01*
X-21500000Y-41700000D02*
X-8820000Y-41700000D01*
X-21548543Y-35400000D02*
X-22600000Y-36451457D01*
X-22600000Y-36451457D02*
X-22600000Y-40600000D01*
X-17750000Y-35950000D02*
X-18300000Y-35400000D01*
X-17750000Y-37950000D02*
X-17750000Y-35950000D01*
D16*
%TO.N,Net-(J2-Pad1)*%
X-12000000Y-8000000D02*
X-12000000Y-4000000D01*
X-19200000Y-34487500D02*
X-19200000Y-33700000D01*
X-17800000Y-8500000D02*
X-12500000Y-8500000D01*
X-19200000Y-33700000D02*
X-21600000Y-31300000D01*
X-21600000Y-31300000D02*
X-21600000Y-12300000D01*
X-21600000Y-12300000D02*
X-17800000Y-8500000D01*
X-12500000Y-8500000D02*
X-12000000Y-8000000D01*
%TO.N,Net-(J3-Pad1)*%
X-20000000Y-9610768D02*
X-20000000Y-4000000D01*
X-22300000Y-11910768D02*
X-20000000Y-9610768D01*
X-22300000Y-31600000D02*
X-22300000Y-11910768D01*
X-20800000Y-33100000D02*
X-22300000Y-31600000D01*
X-20800000Y-34487500D02*
X-20800000Y-33100000D01*
%TO.N,Net-(J4-Pad1)*%
X-6700000Y-9200000D02*
X-4000000Y-6500000D01*
X-17400000Y-9200000D02*
X-6700000Y-9200000D01*
X-20899989Y-31000011D02*
X-20899989Y-12699989D01*
X-15900000Y-36000000D02*
X-20899989Y-31000011D01*
X-15900000Y-37987500D02*
X-15900000Y-36000000D01*
X-4000000Y-6500000D02*
X-4000000Y-4000000D01*
X-20899989Y-12699989D02*
X-17400000Y-9200000D01*
%TD*%
D19*
%TO.N,Net-(J2-Pad1)*%
X-9727000Y-5873000D02*
X-14273000Y-5873000D01*
X-14273000Y-1402000D01*
X-9727000Y-1402000D01*
X-9727000Y-5873000D01*
%TA.AperFunction,Conductor*%
D20*
G36*
X-9727000Y-5873000D02*
G01*
X-14273000Y-5873000D01*
X-14273000Y-1402000D01*
X-9727000Y-1402000D01*
X-9727000Y-5873000D01*
G37*
%TD.AperFunction*%
%TD*%
D19*
%TO.N,Net-(J3-Pad1)*%
X-18127000Y-5873000D02*
X-22598000Y-5873000D01*
X-22598000Y-2019658D01*
X-22584721Y-1884227D01*
X-22551095Y-1772852D01*
X-22496482Y-1670141D01*
X-22422954Y-1579986D01*
X-22333318Y-1505832D01*
X-22230989Y-1450503D01*
X-22119859Y-1416103D01*
X-21985682Y-1402000D01*
X-18127000Y-1402000D01*
X-18127000Y-5873000D01*
%TA.AperFunction,Conductor*%
D20*
G36*
X-18127000Y-5873000D02*
G01*
X-22598000Y-5873000D01*
X-22598000Y-2019658D01*
X-22584721Y-1884227D01*
X-22551095Y-1772852D01*
X-22496482Y-1670141D01*
X-22422954Y-1579986D01*
X-22333318Y-1505832D01*
X-22230989Y-1450503D01*
X-22119859Y-1416103D01*
X-21985682Y-1402000D01*
X-18127000Y-1402000D01*
X-18127000Y-5873000D01*
G37*
%TD.AperFunction*%
%TD*%
D19*
%TO.N,Net-(J4-Pad1)*%
X-1884227Y-1415279D02*
X-1772852Y-1448905D01*
X-1670141Y-1503518D01*
X-1579986Y-1577046D01*
X-1505832Y-1666682D01*
X-1450503Y-1769011D01*
X-1416103Y-1880141D01*
X-1402000Y-2014318D01*
X-1402000Y-5873000D01*
X-5873000Y-5873000D01*
X-5873000Y-1402000D01*
X-2019658Y-1402000D01*
X-1884227Y-1415279D01*
%TA.AperFunction,Conductor*%
D20*
G36*
X-1884227Y-1415279D02*
G01*
X-1772852Y-1448905D01*
X-1670141Y-1503518D01*
X-1579986Y-1577046D01*
X-1505832Y-1666682D01*
X-1450503Y-1769011D01*
X-1416103Y-1880141D01*
X-1402000Y-2014318D01*
X-1402000Y-5873000D01*
X-5873000Y-5873000D01*
X-5873000Y-1402000D01*
X-2019658Y-1402000D01*
X-1884227Y-1415279D01*
G37*
%TD.AperFunction*%
%TD*%
D19*
%TO.N,/TOUCH*%
X-21794202Y-42140304D02*
X-21702650Y-42189239D01*
X-21603310Y-42219374D01*
X-21500000Y-42229549D01*
X-21474119Y-42227000D01*
X-8845881Y-42227000D01*
X-8820000Y-42229549D01*
X-8794119Y-42227000D01*
X-8716690Y-42219374D01*
X-8617350Y-42189239D01*
X-8525798Y-42140304D01*
X-8509587Y-42127000D01*
X-1402000Y-42127000D01*
X-1402000Y-43980343D01*
X-1415280Y-44115776D01*
X-1448905Y-44227146D01*
X-1503518Y-44329860D01*
X-1577046Y-44420014D01*
X-1666682Y-44494168D01*
X-1769011Y-44549497D01*
X-1880141Y-44583897D01*
X-2014319Y-44598000D01*
X-21980343Y-44598000D01*
X-22115776Y-44584720D01*
X-22227146Y-44551095D01*
X-22329860Y-44496482D01*
X-22420014Y-44422954D01*
X-22494168Y-44333318D01*
X-22549497Y-44230989D01*
X-22583897Y-44119859D01*
X-22598000Y-43985681D01*
X-22598000Y-42127000D01*
X-21810413Y-42127000D01*
X-21794202Y-42140304D01*
%TA.AperFunction,Conductor*%
D20*
G36*
X-21794202Y-42140304D02*
G01*
X-21702650Y-42189239D01*
X-21603310Y-42219374D01*
X-21500000Y-42229549D01*
X-21474119Y-42227000D01*
X-8845881Y-42227000D01*
X-8820000Y-42229549D01*
X-8794119Y-42227000D01*
X-8716690Y-42219374D01*
X-8617350Y-42189239D01*
X-8525798Y-42140304D01*
X-8509587Y-42127000D01*
X-1402000Y-42127000D01*
X-1402000Y-43980343D01*
X-1415280Y-44115776D01*
X-1448905Y-44227146D01*
X-1503518Y-44329860D01*
X-1577046Y-44420014D01*
X-1666682Y-44494168D01*
X-1769011Y-44549497D01*
X-1880141Y-44583897D01*
X-2014319Y-44598000D01*
X-21980343Y-44598000D01*
X-22115776Y-44584720D01*
X-22227146Y-44551095D01*
X-22329860Y-44496482D01*
X-22420014Y-44422954D01*
X-22494168Y-44333318D01*
X-22549497Y-44230989D01*
X-22583897Y-44119859D01*
X-22598000Y-43985681D01*
X-22598000Y-42127000D01*
X-21810413Y-42127000D01*
X-21794202Y-42140304D01*
G37*
%TD.AperFunction*%
%TD*%
M02*
