%TF.GenerationSoftware,KiCad,Pcbnew,5.1.8*%
%TF.CreationDate,2020-11-14T09:21:32-05:00*%
%TF.ProjectId,card_lights,63617264-5f6c-4696-9768-74732e6b6963,rev?*%
%TF.SameCoordinates,PX7d80e80PY4491b60*%
%TF.FileFunction,Copper,L1,Top*%
%TF.FilePolarity,Positive*%
%FSLAX46Y46*%
G04 Gerber Fmt 4.6, Leading zero omitted, Abs format (unit mm)*
G04 Created by KiCad (PCBNEW 5.1.8) date 2020-11-14 09:21:32*
%MOMM*%
%LPD*%
G01*
G04 APERTURE LIST*
%TA.AperFunction,SMDPad,CuDef*%
%ADD10R,5.080000X2.540000*%
%TD*%
%TA.AperFunction,SMDPad,CuDef*%
%ADD11C,17.780001*%
%TD*%
%TA.AperFunction,SMDPad,CuDef*%
%ADD12R,1.400000X2.000000*%
%TD*%
%TA.AperFunction,SMDPad,CuDef*%
%ADD13R,4.000000X4.000000*%
%TD*%
%TA.AperFunction,Conductor*%
%ADD14C,3.500000*%
%TD*%
%TA.AperFunction,Conductor*%
%ADD15C,1.000000*%
%TD*%
%TA.AperFunction,Conductor*%
%ADD16C,0.254000*%
%TD*%
%TA.AperFunction,Conductor*%
%ADD17C,0.100000*%
%TD*%
G04 APERTURE END LIST*
D10*
%TO.P,BT1,1*%
%TO.N,Net-(BT1-Pad1)*%
X-12327000Y-32430000D03*
%TO.P,BT1,3*%
%TO.N,N/C*%
X-12327000Y-9570000D03*
D11*
%TO.P,BT1,2*%
%TO.N,GND*%
X-12200000Y-21000000D03*
%TD*%
%TO.P,R1,1*%
%TO.N,Net-(R1-Pad1)*%
%TA.AperFunction,SMDPad,CuDef*%
G36*
G01*
X-18437500Y-7800000D02*
X-17962500Y-7800000D01*
G75*
G02*
X-17725000Y-8037500I0J-237500D01*
G01*
X-17725000Y-8537500D01*
G75*
G02*
X-17962500Y-8775000I-237500J0D01*
G01*
X-18437500Y-8775000D01*
G75*
G02*
X-18675000Y-8537500I0J237500D01*
G01*
X-18675000Y-8037500D01*
G75*
G02*
X-18437500Y-7800000I237500J0D01*
G01*
G37*
%TD.AperFunction*%
%TO.P,R1,2*%
%TO.N,Net-(R1-Pad2)*%
%TA.AperFunction,SMDPad,CuDef*%
G36*
G01*
X-18437500Y-9625000D02*
X-17962500Y-9625000D01*
G75*
G02*
X-17725000Y-9862500I0J-237500D01*
G01*
X-17725000Y-10362500D01*
G75*
G02*
X-17962500Y-10600000I-237500J0D01*
G01*
X-18437500Y-10600000D01*
G75*
G02*
X-18675000Y-10362500I0J237500D01*
G01*
X-18675000Y-9862500D01*
G75*
G02*
X-18437500Y-9625000I237500J0D01*
G01*
G37*
%TD.AperFunction*%
%TD*%
%TO.P,R2,2*%
%TO.N,Net-(R1-Pad2)*%
%TA.AperFunction,SMDPad,CuDef*%
G36*
G01*
X-21937500Y-9625000D02*
X-21462500Y-9625000D01*
G75*
G02*
X-21225000Y-9862500I0J-237500D01*
G01*
X-21225000Y-10362500D01*
G75*
G02*
X-21462500Y-10600000I-237500J0D01*
G01*
X-21937500Y-10600000D01*
G75*
G02*
X-22175000Y-10362500I0J237500D01*
G01*
X-22175000Y-9862500D01*
G75*
G02*
X-21937500Y-9625000I237500J0D01*
G01*
G37*
%TD.AperFunction*%
%TO.P,R2,1*%
%TO.N,Net-(R1-Pad1)*%
%TA.AperFunction,SMDPad,CuDef*%
G36*
G01*
X-21937500Y-7800000D02*
X-21462500Y-7800000D01*
G75*
G02*
X-21225000Y-8037500I0J-237500D01*
G01*
X-21225000Y-8537500D01*
G75*
G02*
X-21462500Y-8775000I-237500J0D01*
G01*
X-21937500Y-8775000D01*
G75*
G02*
X-22175000Y-8537500I0J237500D01*
G01*
X-22175000Y-8037500D01*
G75*
G02*
X-21937500Y-7800000I237500J0D01*
G01*
G37*
%TD.AperFunction*%
%TD*%
D12*
%TO.P,SW1,1*%
%TO.N,Net-(BT1-Pad1)*%
X-19200000Y-38500000D03*
X-5200000Y-38500000D03*
%TO.P,SW1,2*%
%TO.N,Net-(R1-Pad2)*%
X-5200000Y-43500000D03*
X-19200000Y-43500000D03*
%TD*%
D13*
%TO.P,TP1,1*%
%TO.N,Net-(R1-Pad1)*%
X-19900000Y-4500000D03*
%TD*%
%TO.P,TP2,1*%
%TO.N,GND*%
X-4500000Y-4500000D03*
%TD*%
D14*
%TO.N,GND*%
X-4500000Y-13300000D02*
X-12200000Y-21000000D01*
X-4500000Y-4500000D02*
X-4500000Y-13300000D01*
D15*
%TO.N,Net-(R1-Pad1)*%
X-19600000Y-4200000D02*
X-19900000Y-4500000D01*
%TD*%
D16*
%TO.N,Net-(BT1-Pad1)*%
X-15505072Y-31160000D02*
X-15502000Y-32144250D01*
X-15343250Y-32303000D01*
X-12454000Y-32303000D01*
X-12454000Y-32283000D01*
X-12200000Y-32283000D01*
X-12200000Y-32303000D01*
X-9310750Y-32303000D01*
X-9152000Y-32144250D01*
X-9148928Y-31160000D01*
X-9152178Y-31127000D01*
X-4427000Y-31127000D01*
X-4427000Y-36869118D01*
X-4500000Y-36861928D01*
X-4914250Y-36865000D01*
X-5073000Y-37023750D01*
X-5073000Y-38373000D01*
X-5053000Y-38373000D01*
X-5053000Y-38627000D01*
X-5073000Y-38627000D01*
X-5073000Y-38647000D01*
X-5327000Y-38647000D01*
X-5327000Y-38627000D01*
X-6376250Y-38627000D01*
X-6535000Y-38785750D01*
X-6538072Y-39500000D01*
X-6530882Y-39573000D01*
X-17869118Y-39573000D01*
X-17861928Y-39500000D01*
X-17865000Y-38785750D01*
X-18023750Y-38627000D01*
X-19073000Y-38627000D01*
X-19073000Y-38647000D01*
X-19327000Y-38647000D01*
X-19327000Y-38627000D01*
X-19347000Y-38627000D01*
X-19347000Y-38373000D01*
X-19327000Y-38373000D01*
X-19327000Y-37023750D01*
X-19073000Y-37023750D01*
X-19073000Y-38373000D01*
X-18023750Y-38373000D01*
X-17865000Y-38214250D01*
X-17861928Y-37500000D01*
X-6538072Y-37500000D01*
X-6535000Y-38214250D01*
X-6376250Y-38373000D01*
X-5327000Y-38373000D01*
X-5327000Y-37023750D01*
X-5485750Y-36865000D01*
X-5900000Y-36861928D01*
X-6024482Y-36874188D01*
X-6144180Y-36910498D01*
X-6254494Y-36969463D01*
X-6351185Y-37048815D01*
X-6430537Y-37145506D01*
X-6489502Y-37255820D01*
X-6525812Y-37375518D01*
X-6538072Y-37500000D01*
X-17861928Y-37500000D01*
X-17874188Y-37375518D01*
X-17910498Y-37255820D01*
X-17969463Y-37145506D01*
X-18048815Y-37048815D01*
X-18145506Y-36969463D01*
X-18255820Y-36910498D01*
X-18375518Y-36874188D01*
X-18500000Y-36861928D01*
X-18914250Y-36865000D01*
X-19073000Y-37023750D01*
X-19327000Y-37023750D01*
X-19485750Y-36865000D01*
X-19900000Y-36861928D01*
X-19973000Y-36869118D01*
X-19973000Y-33700000D01*
X-15505072Y-33700000D01*
X-15492812Y-33824482D01*
X-15456502Y-33944180D01*
X-15397537Y-34054494D01*
X-15318185Y-34151185D01*
X-15221494Y-34230537D01*
X-15111180Y-34289502D01*
X-14991482Y-34325812D01*
X-14867000Y-34338072D01*
X-12612750Y-34335000D01*
X-12454000Y-34176250D01*
X-12454000Y-32557000D01*
X-12200000Y-32557000D01*
X-12200000Y-34176250D01*
X-12041250Y-34335000D01*
X-9787000Y-34338072D01*
X-9662518Y-34325812D01*
X-9542820Y-34289502D01*
X-9432506Y-34230537D01*
X-9335815Y-34151185D01*
X-9256463Y-34054494D01*
X-9197498Y-33944180D01*
X-9161188Y-33824482D01*
X-9148928Y-33700000D01*
X-9152000Y-32715750D01*
X-9310750Y-32557000D01*
X-12200000Y-32557000D01*
X-12454000Y-32557000D01*
X-15343250Y-32557000D01*
X-15502000Y-32715750D01*
X-15505072Y-33700000D01*
X-19973000Y-33700000D01*
X-19973000Y-31127000D01*
X-15501822Y-31127000D01*
X-15505072Y-31160000D01*
%TA.AperFunction,Conductor*%
D17*
G36*
X-15505072Y-31160000D02*
G01*
X-15502000Y-32144250D01*
X-15343250Y-32303000D01*
X-12454000Y-32303000D01*
X-12454000Y-32283000D01*
X-12200000Y-32283000D01*
X-12200000Y-32303000D01*
X-9310750Y-32303000D01*
X-9152000Y-32144250D01*
X-9148928Y-31160000D01*
X-9152178Y-31127000D01*
X-4427000Y-31127000D01*
X-4427000Y-36869118D01*
X-4500000Y-36861928D01*
X-4914250Y-36865000D01*
X-5073000Y-37023750D01*
X-5073000Y-38373000D01*
X-5053000Y-38373000D01*
X-5053000Y-38627000D01*
X-5073000Y-38627000D01*
X-5073000Y-38647000D01*
X-5327000Y-38647000D01*
X-5327000Y-38627000D01*
X-6376250Y-38627000D01*
X-6535000Y-38785750D01*
X-6538072Y-39500000D01*
X-6530882Y-39573000D01*
X-17869118Y-39573000D01*
X-17861928Y-39500000D01*
X-17865000Y-38785750D01*
X-18023750Y-38627000D01*
X-19073000Y-38627000D01*
X-19073000Y-38647000D01*
X-19327000Y-38647000D01*
X-19327000Y-38627000D01*
X-19347000Y-38627000D01*
X-19347000Y-38373000D01*
X-19327000Y-38373000D01*
X-19327000Y-37023750D01*
X-19073000Y-37023750D01*
X-19073000Y-38373000D01*
X-18023750Y-38373000D01*
X-17865000Y-38214250D01*
X-17861928Y-37500000D01*
X-6538072Y-37500000D01*
X-6535000Y-38214250D01*
X-6376250Y-38373000D01*
X-5327000Y-38373000D01*
X-5327000Y-37023750D01*
X-5485750Y-36865000D01*
X-5900000Y-36861928D01*
X-6024482Y-36874188D01*
X-6144180Y-36910498D01*
X-6254494Y-36969463D01*
X-6351185Y-37048815D01*
X-6430537Y-37145506D01*
X-6489502Y-37255820D01*
X-6525812Y-37375518D01*
X-6538072Y-37500000D01*
X-17861928Y-37500000D01*
X-17874188Y-37375518D01*
X-17910498Y-37255820D01*
X-17969463Y-37145506D01*
X-18048815Y-37048815D01*
X-18145506Y-36969463D01*
X-18255820Y-36910498D01*
X-18375518Y-36874188D01*
X-18500000Y-36861928D01*
X-18914250Y-36865000D01*
X-19073000Y-37023750D01*
X-19327000Y-37023750D01*
X-19485750Y-36865000D01*
X-19900000Y-36861928D01*
X-19973000Y-36869118D01*
X-19973000Y-33700000D01*
X-15505072Y-33700000D01*
X-15492812Y-33824482D01*
X-15456502Y-33944180D01*
X-15397537Y-34054494D01*
X-15318185Y-34151185D01*
X-15221494Y-34230537D01*
X-15111180Y-34289502D01*
X-14991482Y-34325812D01*
X-14867000Y-34338072D01*
X-12612750Y-34335000D01*
X-12454000Y-34176250D01*
X-12454000Y-32557000D01*
X-12200000Y-32557000D01*
X-12200000Y-34176250D01*
X-12041250Y-34335000D01*
X-9787000Y-34338072D01*
X-9662518Y-34325812D01*
X-9542820Y-34289502D01*
X-9432506Y-34230537D01*
X-9335815Y-34151185D01*
X-9256463Y-34054494D01*
X-9197498Y-33944180D01*
X-9161188Y-33824482D01*
X-9148928Y-33700000D01*
X-9152000Y-32715750D01*
X-9310750Y-32557000D01*
X-12200000Y-32557000D01*
X-12454000Y-32557000D01*
X-15343250Y-32557000D01*
X-15502000Y-32715750D01*
X-15505072Y-33700000D01*
X-19973000Y-33700000D01*
X-19973000Y-31127000D01*
X-15501822Y-31127000D01*
X-15505072Y-31160000D01*
G37*
%TD.AperFunction*%
%TD*%
D16*
%TO.N,Net-(R1-Pad1)*%
X-16927000Y-8873000D02*
X-17096580Y-8873000D01*
X-17086928Y-8775000D01*
X-17090000Y-8573250D01*
X-17248750Y-8414500D01*
X-18073000Y-8414500D01*
X-18073000Y-8434500D01*
X-18327000Y-8434500D01*
X-18327000Y-8414500D01*
X-19151250Y-8414500D01*
X-19310000Y-8573250D01*
X-19313072Y-8775000D01*
X-19303420Y-8873000D01*
X-20596580Y-8873000D01*
X-20586928Y-8775000D01*
X-20590000Y-8573250D01*
X-20748750Y-8414500D01*
X-21573000Y-8414500D01*
X-21573000Y-8434500D01*
X-21827000Y-8434500D01*
X-21827000Y-8414500D01*
X-21847000Y-8414500D01*
X-21847000Y-8160500D01*
X-21827000Y-8160500D01*
X-21827000Y-7323750D01*
X-21573000Y-7323750D01*
X-21573000Y-8160500D01*
X-20748750Y-8160500D01*
X-20590000Y-8001750D01*
X-20586928Y-7800000D01*
X-19313072Y-7800000D01*
X-19310000Y-8001750D01*
X-19151250Y-8160500D01*
X-18327000Y-8160500D01*
X-18327000Y-7323750D01*
X-18073000Y-7323750D01*
X-18073000Y-8160500D01*
X-17248750Y-8160500D01*
X-17090000Y-8001750D01*
X-17086928Y-7800000D01*
X-17099188Y-7675518D01*
X-17135498Y-7555820D01*
X-17194463Y-7445506D01*
X-17273815Y-7348815D01*
X-17370506Y-7269463D01*
X-17480820Y-7210498D01*
X-17600518Y-7174188D01*
X-17725000Y-7161928D01*
X-17914250Y-7165000D01*
X-18073000Y-7323750D01*
X-18327000Y-7323750D01*
X-18485750Y-7165000D01*
X-18675000Y-7161928D01*
X-18799482Y-7174188D01*
X-18919180Y-7210498D01*
X-19029494Y-7269463D01*
X-19126185Y-7348815D01*
X-19205537Y-7445506D01*
X-19264502Y-7555820D01*
X-19300812Y-7675518D01*
X-19313072Y-7800000D01*
X-20586928Y-7800000D01*
X-20599188Y-7675518D01*
X-20635498Y-7555820D01*
X-20694463Y-7445506D01*
X-20773815Y-7348815D01*
X-20870506Y-7269463D01*
X-20980820Y-7210498D01*
X-21100518Y-7174188D01*
X-21225000Y-7161928D01*
X-21414250Y-7165000D01*
X-21573000Y-7323750D01*
X-21827000Y-7323750D01*
X-21985750Y-7165000D01*
X-22175000Y-7161928D01*
X-22299482Y-7174188D01*
X-22419180Y-7210498D01*
X-22529494Y-7269463D01*
X-22626185Y-7348815D01*
X-22705537Y-7445506D01*
X-22740000Y-7509981D01*
X-22740000Y-6500000D01*
X-22538072Y-6500000D01*
X-22525812Y-6624482D01*
X-22489502Y-6744180D01*
X-22430537Y-6854494D01*
X-22351185Y-6951185D01*
X-22254494Y-7030537D01*
X-22144180Y-7089502D01*
X-22024482Y-7125812D01*
X-21900000Y-7138072D01*
X-20185750Y-7135000D01*
X-20027000Y-6976250D01*
X-20027000Y-4627000D01*
X-19773000Y-4627000D01*
X-19773000Y-6976250D01*
X-19614250Y-7135000D01*
X-17900000Y-7138072D01*
X-17775518Y-7125812D01*
X-17655820Y-7089502D01*
X-17545506Y-7030537D01*
X-17448815Y-6951185D01*
X-17369463Y-6854494D01*
X-17310498Y-6744180D01*
X-17274188Y-6624482D01*
X-17261928Y-6500000D01*
X-17265000Y-4785750D01*
X-17423750Y-4627000D01*
X-19773000Y-4627000D01*
X-20027000Y-4627000D01*
X-22376250Y-4627000D01*
X-22535000Y-4785750D01*
X-22538072Y-6500000D01*
X-22740000Y-6500000D01*
X-22740000Y-2500000D01*
X-22538072Y-2500000D01*
X-22535000Y-4214250D01*
X-22376250Y-4373000D01*
X-20027000Y-4373000D01*
X-20027000Y-2023750D01*
X-19773000Y-2023750D01*
X-19773000Y-4373000D01*
X-17423750Y-4373000D01*
X-17265000Y-4214250D01*
X-17261928Y-2500000D01*
X-17274188Y-2375518D01*
X-17310498Y-2255820D01*
X-17369463Y-2145506D01*
X-17448815Y-2048815D01*
X-17545506Y-1969463D01*
X-17655820Y-1910498D01*
X-17775518Y-1874188D01*
X-17900000Y-1861928D01*
X-19614250Y-1865000D01*
X-19773000Y-2023750D01*
X-20027000Y-2023750D01*
X-20185750Y-1865000D01*
X-21900000Y-1861928D01*
X-22024482Y-1874188D01*
X-22144180Y-1910498D01*
X-22254494Y-1969463D01*
X-22351185Y-2048815D01*
X-22430537Y-2145506D01*
X-22489502Y-2255820D01*
X-22525812Y-2375518D01*
X-22538072Y-2500000D01*
X-22740000Y-2500000D01*
X-22740000Y-1660000D01*
X-16927000Y-1660000D01*
X-16927000Y-8873000D01*
%TA.AperFunction,Conductor*%
D17*
G36*
X-16927000Y-8873000D02*
G01*
X-17096580Y-8873000D01*
X-17086928Y-8775000D01*
X-17090000Y-8573250D01*
X-17248750Y-8414500D01*
X-18073000Y-8414500D01*
X-18073000Y-8434500D01*
X-18327000Y-8434500D01*
X-18327000Y-8414500D01*
X-19151250Y-8414500D01*
X-19310000Y-8573250D01*
X-19313072Y-8775000D01*
X-19303420Y-8873000D01*
X-20596580Y-8873000D01*
X-20586928Y-8775000D01*
X-20590000Y-8573250D01*
X-20748750Y-8414500D01*
X-21573000Y-8414500D01*
X-21573000Y-8434500D01*
X-21827000Y-8434500D01*
X-21827000Y-8414500D01*
X-21847000Y-8414500D01*
X-21847000Y-8160500D01*
X-21827000Y-8160500D01*
X-21827000Y-7323750D01*
X-21573000Y-7323750D01*
X-21573000Y-8160500D01*
X-20748750Y-8160500D01*
X-20590000Y-8001750D01*
X-20586928Y-7800000D01*
X-19313072Y-7800000D01*
X-19310000Y-8001750D01*
X-19151250Y-8160500D01*
X-18327000Y-8160500D01*
X-18327000Y-7323750D01*
X-18073000Y-7323750D01*
X-18073000Y-8160500D01*
X-17248750Y-8160500D01*
X-17090000Y-8001750D01*
X-17086928Y-7800000D01*
X-17099188Y-7675518D01*
X-17135498Y-7555820D01*
X-17194463Y-7445506D01*
X-17273815Y-7348815D01*
X-17370506Y-7269463D01*
X-17480820Y-7210498D01*
X-17600518Y-7174188D01*
X-17725000Y-7161928D01*
X-17914250Y-7165000D01*
X-18073000Y-7323750D01*
X-18327000Y-7323750D01*
X-18485750Y-7165000D01*
X-18675000Y-7161928D01*
X-18799482Y-7174188D01*
X-18919180Y-7210498D01*
X-19029494Y-7269463D01*
X-19126185Y-7348815D01*
X-19205537Y-7445506D01*
X-19264502Y-7555820D01*
X-19300812Y-7675518D01*
X-19313072Y-7800000D01*
X-20586928Y-7800000D01*
X-20599188Y-7675518D01*
X-20635498Y-7555820D01*
X-20694463Y-7445506D01*
X-20773815Y-7348815D01*
X-20870506Y-7269463D01*
X-20980820Y-7210498D01*
X-21100518Y-7174188D01*
X-21225000Y-7161928D01*
X-21414250Y-7165000D01*
X-21573000Y-7323750D01*
X-21827000Y-7323750D01*
X-21985750Y-7165000D01*
X-22175000Y-7161928D01*
X-22299482Y-7174188D01*
X-22419180Y-7210498D01*
X-22529494Y-7269463D01*
X-22626185Y-7348815D01*
X-22705537Y-7445506D01*
X-22740000Y-7509981D01*
X-22740000Y-6500000D01*
X-22538072Y-6500000D01*
X-22525812Y-6624482D01*
X-22489502Y-6744180D01*
X-22430537Y-6854494D01*
X-22351185Y-6951185D01*
X-22254494Y-7030537D01*
X-22144180Y-7089502D01*
X-22024482Y-7125812D01*
X-21900000Y-7138072D01*
X-20185750Y-7135000D01*
X-20027000Y-6976250D01*
X-20027000Y-4627000D01*
X-19773000Y-4627000D01*
X-19773000Y-6976250D01*
X-19614250Y-7135000D01*
X-17900000Y-7138072D01*
X-17775518Y-7125812D01*
X-17655820Y-7089502D01*
X-17545506Y-7030537D01*
X-17448815Y-6951185D01*
X-17369463Y-6854494D01*
X-17310498Y-6744180D01*
X-17274188Y-6624482D01*
X-17261928Y-6500000D01*
X-17265000Y-4785750D01*
X-17423750Y-4627000D01*
X-19773000Y-4627000D01*
X-20027000Y-4627000D01*
X-22376250Y-4627000D01*
X-22535000Y-4785750D01*
X-22538072Y-6500000D01*
X-22740000Y-6500000D01*
X-22740000Y-2500000D01*
X-22538072Y-2500000D01*
X-22535000Y-4214250D01*
X-22376250Y-4373000D01*
X-20027000Y-4373000D01*
X-20027000Y-2023750D01*
X-19773000Y-2023750D01*
X-19773000Y-4373000D01*
X-17423750Y-4373000D01*
X-17265000Y-4214250D01*
X-17261928Y-2500000D01*
X-17274188Y-2375518D01*
X-17310498Y-2255820D01*
X-17369463Y-2145506D01*
X-17448815Y-2048815D01*
X-17545506Y-1969463D01*
X-17655820Y-1910498D01*
X-17775518Y-1874188D01*
X-17900000Y-1861928D01*
X-19614250Y-1865000D01*
X-19773000Y-2023750D01*
X-20027000Y-2023750D01*
X-20185750Y-1865000D01*
X-21900000Y-1861928D01*
X-22024482Y-1874188D01*
X-22144180Y-1910498D01*
X-22254494Y-1969463D01*
X-22351185Y-2048815D01*
X-22430537Y-2145506D01*
X-22489502Y-2255820D01*
X-22525812Y-2375518D01*
X-22538072Y-2500000D01*
X-22740000Y-2500000D01*
X-22740000Y-1660000D01*
X-16927000Y-1660000D01*
X-16927000Y-8873000D01*
G37*
%TD.AperFunction*%
%TD*%
D16*
%TO.N,Net-(R1-Pad2)*%
X-19310000Y-9826750D02*
X-19151250Y-9985500D01*
X-18327000Y-9985500D01*
X-18327000Y-9965500D01*
X-18073000Y-9965500D01*
X-18073000Y-9985500D01*
X-17248750Y-9985500D01*
X-17090000Y-9826750D01*
X-17087080Y-9635000D01*
X-16927000Y-9635000D01*
X-16927000Y-12702861D01*
X-18271833Y-13601450D01*
X-19598550Y-14928167D01*
X-20640945Y-16488221D01*
X-21358959Y-18221660D01*
X-21725000Y-20061869D01*
X-21725000Y-21938131D01*
X-21358959Y-23778340D01*
X-20727000Y-25304024D01*
X-20727000Y-30900000D01*
X-20726012Y-30908737D01*
X-20735000Y-31000000D01*
X-20735000Y-39700000D01*
X-20722799Y-39823882D01*
X-20686664Y-39943004D01*
X-20627983Y-40052787D01*
X-20549013Y-40149013D01*
X-20452787Y-40227983D01*
X-20343004Y-40286664D01*
X-20223882Y-40322799D01*
X-20100000Y-40335000D01*
X-4300000Y-40335000D01*
X-4176118Y-40322799D01*
X-4152040Y-40315495D01*
X-4148601Y-40317333D01*
X-4124776Y-40324560D01*
X-4100000Y-40327000D01*
X-1659999Y-40327000D01*
X-1659999Y-47840000D01*
X-22740000Y-47840000D01*
X-22740000Y-44500000D01*
X-20538072Y-44500000D01*
X-20525812Y-44624482D01*
X-20489502Y-44744180D01*
X-20430537Y-44854494D01*
X-20351185Y-44951185D01*
X-20254494Y-45030537D01*
X-20144180Y-45089502D01*
X-20024482Y-45125812D01*
X-19900000Y-45138072D01*
X-19485750Y-45135000D01*
X-19327000Y-44976250D01*
X-19327000Y-43627000D01*
X-19073000Y-43627000D01*
X-19073000Y-44976250D01*
X-18914250Y-45135000D01*
X-18500000Y-45138072D01*
X-18375518Y-45125812D01*
X-18255820Y-45089502D01*
X-18145506Y-45030537D01*
X-18048815Y-44951185D01*
X-17969463Y-44854494D01*
X-17910498Y-44744180D01*
X-17874188Y-44624482D01*
X-17861928Y-44500000D01*
X-6538072Y-44500000D01*
X-6525812Y-44624482D01*
X-6489502Y-44744180D01*
X-6430537Y-44854494D01*
X-6351185Y-44951185D01*
X-6254494Y-45030537D01*
X-6144180Y-45089502D01*
X-6024482Y-45125812D01*
X-5900000Y-45138072D01*
X-5485750Y-45135000D01*
X-5327000Y-44976250D01*
X-5327000Y-43627000D01*
X-5073000Y-43627000D01*
X-5073000Y-44976250D01*
X-4914250Y-45135000D01*
X-4500000Y-45138072D01*
X-4375518Y-45125812D01*
X-4255820Y-45089502D01*
X-4145506Y-45030537D01*
X-4048815Y-44951185D01*
X-3969463Y-44854494D01*
X-3910498Y-44744180D01*
X-3874188Y-44624482D01*
X-3861928Y-44500000D01*
X-3865000Y-43785750D01*
X-4023750Y-43627000D01*
X-5073000Y-43627000D01*
X-5327000Y-43627000D01*
X-6376250Y-43627000D01*
X-6535000Y-43785750D01*
X-6538072Y-44500000D01*
X-17861928Y-44500000D01*
X-17865000Y-43785750D01*
X-18023750Y-43627000D01*
X-19073000Y-43627000D01*
X-19327000Y-43627000D01*
X-20376250Y-43627000D01*
X-20535000Y-43785750D01*
X-20538072Y-44500000D01*
X-22740000Y-44500000D01*
X-22740000Y-42500000D01*
X-20538072Y-42500000D01*
X-20535000Y-43214250D01*
X-20376250Y-43373000D01*
X-19327000Y-43373000D01*
X-19327000Y-42023750D01*
X-19073000Y-42023750D01*
X-19073000Y-43373000D01*
X-18023750Y-43373000D01*
X-17865000Y-43214250D01*
X-17861928Y-42500000D01*
X-6538072Y-42500000D01*
X-6535000Y-43214250D01*
X-6376250Y-43373000D01*
X-5327000Y-43373000D01*
X-5327000Y-42023750D01*
X-5073000Y-42023750D01*
X-5073000Y-43373000D01*
X-4023750Y-43373000D01*
X-3865000Y-43214250D01*
X-3861928Y-42500000D01*
X-3874188Y-42375518D01*
X-3910498Y-42255820D01*
X-3969463Y-42145506D01*
X-4048815Y-42048815D01*
X-4145506Y-41969463D01*
X-4255820Y-41910498D01*
X-4375518Y-41874188D01*
X-4500000Y-41861928D01*
X-4914250Y-41865000D01*
X-5073000Y-42023750D01*
X-5327000Y-42023750D01*
X-5485750Y-41865000D01*
X-5900000Y-41861928D01*
X-6024482Y-41874188D01*
X-6144180Y-41910498D01*
X-6254494Y-41969463D01*
X-6351185Y-42048815D01*
X-6430537Y-42145506D01*
X-6489502Y-42255820D01*
X-6525812Y-42375518D01*
X-6538072Y-42500000D01*
X-17861928Y-42500000D01*
X-17874188Y-42375518D01*
X-17910498Y-42255820D01*
X-17969463Y-42145506D01*
X-18048815Y-42048815D01*
X-18145506Y-41969463D01*
X-18255820Y-41910498D01*
X-18375518Y-41874188D01*
X-18500000Y-41861928D01*
X-18914250Y-41865000D01*
X-19073000Y-42023750D01*
X-19327000Y-42023750D01*
X-19485750Y-41865000D01*
X-19900000Y-41861928D01*
X-20024482Y-41874188D01*
X-20144180Y-41910498D01*
X-20254494Y-41969463D01*
X-20351185Y-42048815D01*
X-20430537Y-42145506D01*
X-20489502Y-42255820D01*
X-20525812Y-42375518D01*
X-20538072Y-42500000D01*
X-22740000Y-42500000D01*
X-22740000Y-10890019D01*
X-22705537Y-10954494D01*
X-22626185Y-11051185D01*
X-22529494Y-11130537D01*
X-22419180Y-11189502D01*
X-22299482Y-11225812D01*
X-22175000Y-11238072D01*
X-21985750Y-11235000D01*
X-21827000Y-11076250D01*
X-21827000Y-10239500D01*
X-21573000Y-10239500D01*
X-21573000Y-11076250D01*
X-21414250Y-11235000D01*
X-21225000Y-11238072D01*
X-21100518Y-11225812D01*
X-20980820Y-11189502D01*
X-20870506Y-11130537D01*
X-20773815Y-11051185D01*
X-20694463Y-10954494D01*
X-20635498Y-10844180D01*
X-20599188Y-10724482D01*
X-20586928Y-10600000D01*
X-19313072Y-10600000D01*
X-19300812Y-10724482D01*
X-19264502Y-10844180D01*
X-19205537Y-10954494D01*
X-19126185Y-11051185D01*
X-19029494Y-11130537D01*
X-18919180Y-11189502D01*
X-18799482Y-11225812D01*
X-18675000Y-11238072D01*
X-18485750Y-11235000D01*
X-18327000Y-11076250D01*
X-18327000Y-10239500D01*
X-18073000Y-10239500D01*
X-18073000Y-11076250D01*
X-17914250Y-11235000D01*
X-17725000Y-11238072D01*
X-17600518Y-11225812D01*
X-17480820Y-11189502D01*
X-17370506Y-11130537D01*
X-17273815Y-11051185D01*
X-17194463Y-10954494D01*
X-17135498Y-10844180D01*
X-17099188Y-10724482D01*
X-17086928Y-10600000D01*
X-17090000Y-10398250D01*
X-17248750Y-10239500D01*
X-18073000Y-10239500D01*
X-18327000Y-10239500D01*
X-19151250Y-10239500D01*
X-19310000Y-10398250D01*
X-19313072Y-10600000D01*
X-20586928Y-10600000D01*
X-20590000Y-10398250D01*
X-20748750Y-10239500D01*
X-21573000Y-10239500D01*
X-21827000Y-10239500D01*
X-21847000Y-10239500D01*
X-21847000Y-9985500D01*
X-21827000Y-9985500D01*
X-21827000Y-9965500D01*
X-21573000Y-9965500D01*
X-21573000Y-9985500D01*
X-20748750Y-9985500D01*
X-20590000Y-9826750D01*
X-20587080Y-9635000D01*
X-19312920Y-9635000D01*
X-19310000Y-9826750D01*
%TA.AperFunction,Conductor*%
D17*
G36*
X-19310000Y-9826750D02*
G01*
X-19151250Y-9985500D01*
X-18327000Y-9985500D01*
X-18327000Y-9965500D01*
X-18073000Y-9965500D01*
X-18073000Y-9985500D01*
X-17248750Y-9985500D01*
X-17090000Y-9826750D01*
X-17087080Y-9635000D01*
X-16927000Y-9635000D01*
X-16927000Y-12702861D01*
X-18271833Y-13601450D01*
X-19598550Y-14928167D01*
X-20640945Y-16488221D01*
X-21358959Y-18221660D01*
X-21725000Y-20061869D01*
X-21725000Y-21938131D01*
X-21358959Y-23778340D01*
X-20727000Y-25304024D01*
X-20727000Y-30900000D01*
X-20726012Y-30908737D01*
X-20735000Y-31000000D01*
X-20735000Y-39700000D01*
X-20722799Y-39823882D01*
X-20686664Y-39943004D01*
X-20627983Y-40052787D01*
X-20549013Y-40149013D01*
X-20452787Y-40227983D01*
X-20343004Y-40286664D01*
X-20223882Y-40322799D01*
X-20100000Y-40335000D01*
X-4300000Y-40335000D01*
X-4176118Y-40322799D01*
X-4152040Y-40315495D01*
X-4148601Y-40317333D01*
X-4124776Y-40324560D01*
X-4100000Y-40327000D01*
X-1659999Y-40327000D01*
X-1659999Y-47840000D01*
X-22740000Y-47840000D01*
X-22740000Y-44500000D01*
X-20538072Y-44500000D01*
X-20525812Y-44624482D01*
X-20489502Y-44744180D01*
X-20430537Y-44854494D01*
X-20351185Y-44951185D01*
X-20254494Y-45030537D01*
X-20144180Y-45089502D01*
X-20024482Y-45125812D01*
X-19900000Y-45138072D01*
X-19485750Y-45135000D01*
X-19327000Y-44976250D01*
X-19327000Y-43627000D01*
X-19073000Y-43627000D01*
X-19073000Y-44976250D01*
X-18914250Y-45135000D01*
X-18500000Y-45138072D01*
X-18375518Y-45125812D01*
X-18255820Y-45089502D01*
X-18145506Y-45030537D01*
X-18048815Y-44951185D01*
X-17969463Y-44854494D01*
X-17910498Y-44744180D01*
X-17874188Y-44624482D01*
X-17861928Y-44500000D01*
X-6538072Y-44500000D01*
X-6525812Y-44624482D01*
X-6489502Y-44744180D01*
X-6430537Y-44854494D01*
X-6351185Y-44951185D01*
X-6254494Y-45030537D01*
X-6144180Y-45089502D01*
X-6024482Y-45125812D01*
X-5900000Y-45138072D01*
X-5485750Y-45135000D01*
X-5327000Y-44976250D01*
X-5327000Y-43627000D01*
X-5073000Y-43627000D01*
X-5073000Y-44976250D01*
X-4914250Y-45135000D01*
X-4500000Y-45138072D01*
X-4375518Y-45125812D01*
X-4255820Y-45089502D01*
X-4145506Y-45030537D01*
X-4048815Y-44951185D01*
X-3969463Y-44854494D01*
X-3910498Y-44744180D01*
X-3874188Y-44624482D01*
X-3861928Y-44500000D01*
X-3865000Y-43785750D01*
X-4023750Y-43627000D01*
X-5073000Y-43627000D01*
X-5327000Y-43627000D01*
X-6376250Y-43627000D01*
X-6535000Y-43785750D01*
X-6538072Y-44500000D01*
X-17861928Y-44500000D01*
X-17865000Y-43785750D01*
X-18023750Y-43627000D01*
X-19073000Y-43627000D01*
X-19327000Y-43627000D01*
X-20376250Y-43627000D01*
X-20535000Y-43785750D01*
X-20538072Y-44500000D01*
X-22740000Y-44500000D01*
X-22740000Y-42500000D01*
X-20538072Y-42500000D01*
X-20535000Y-43214250D01*
X-20376250Y-43373000D01*
X-19327000Y-43373000D01*
X-19327000Y-42023750D01*
X-19073000Y-42023750D01*
X-19073000Y-43373000D01*
X-18023750Y-43373000D01*
X-17865000Y-43214250D01*
X-17861928Y-42500000D01*
X-6538072Y-42500000D01*
X-6535000Y-43214250D01*
X-6376250Y-43373000D01*
X-5327000Y-43373000D01*
X-5327000Y-42023750D01*
X-5073000Y-42023750D01*
X-5073000Y-43373000D01*
X-4023750Y-43373000D01*
X-3865000Y-43214250D01*
X-3861928Y-42500000D01*
X-3874188Y-42375518D01*
X-3910498Y-42255820D01*
X-3969463Y-42145506D01*
X-4048815Y-42048815D01*
X-4145506Y-41969463D01*
X-4255820Y-41910498D01*
X-4375518Y-41874188D01*
X-4500000Y-41861928D01*
X-4914250Y-41865000D01*
X-5073000Y-42023750D01*
X-5327000Y-42023750D01*
X-5485750Y-41865000D01*
X-5900000Y-41861928D01*
X-6024482Y-41874188D01*
X-6144180Y-41910498D01*
X-6254494Y-41969463D01*
X-6351185Y-42048815D01*
X-6430537Y-42145506D01*
X-6489502Y-42255820D01*
X-6525812Y-42375518D01*
X-6538072Y-42500000D01*
X-17861928Y-42500000D01*
X-17874188Y-42375518D01*
X-17910498Y-42255820D01*
X-17969463Y-42145506D01*
X-18048815Y-42048815D01*
X-18145506Y-41969463D01*
X-18255820Y-41910498D01*
X-18375518Y-41874188D01*
X-18500000Y-41861928D01*
X-18914250Y-41865000D01*
X-19073000Y-42023750D01*
X-19327000Y-42023750D01*
X-19485750Y-41865000D01*
X-19900000Y-41861928D01*
X-20024482Y-41874188D01*
X-20144180Y-41910498D01*
X-20254494Y-41969463D01*
X-20351185Y-42048815D01*
X-20430537Y-42145506D01*
X-20489502Y-42255820D01*
X-20525812Y-42375518D01*
X-20538072Y-42500000D01*
X-22740000Y-42500000D01*
X-22740000Y-10890019D01*
X-22705537Y-10954494D01*
X-22626185Y-11051185D01*
X-22529494Y-11130537D01*
X-22419180Y-11189502D01*
X-22299482Y-11225812D01*
X-22175000Y-11238072D01*
X-21985750Y-11235000D01*
X-21827000Y-11076250D01*
X-21827000Y-10239500D01*
X-21573000Y-10239500D01*
X-21573000Y-11076250D01*
X-21414250Y-11235000D01*
X-21225000Y-11238072D01*
X-21100518Y-11225812D01*
X-20980820Y-11189502D01*
X-20870506Y-11130537D01*
X-20773815Y-11051185D01*
X-20694463Y-10954494D01*
X-20635498Y-10844180D01*
X-20599188Y-10724482D01*
X-20586928Y-10600000D01*
X-19313072Y-10600000D01*
X-19300812Y-10724482D01*
X-19264502Y-10844180D01*
X-19205537Y-10954494D01*
X-19126185Y-11051185D01*
X-19029494Y-11130537D01*
X-18919180Y-11189502D01*
X-18799482Y-11225812D01*
X-18675000Y-11238072D01*
X-18485750Y-11235000D01*
X-18327000Y-11076250D01*
X-18327000Y-10239500D01*
X-18073000Y-10239500D01*
X-18073000Y-11076250D01*
X-17914250Y-11235000D01*
X-17725000Y-11238072D01*
X-17600518Y-11225812D01*
X-17480820Y-11189502D01*
X-17370506Y-11130537D01*
X-17273815Y-11051185D01*
X-17194463Y-10954494D01*
X-17135498Y-10844180D01*
X-17099188Y-10724482D01*
X-17086928Y-10600000D01*
X-17090000Y-10398250D01*
X-17248750Y-10239500D01*
X-18073000Y-10239500D01*
X-18327000Y-10239500D01*
X-19151250Y-10239500D01*
X-19310000Y-10398250D01*
X-19313072Y-10600000D01*
X-20586928Y-10600000D01*
X-20590000Y-10398250D01*
X-20748750Y-10239500D01*
X-21573000Y-10239500D01*
X-21827000Y-10239500D01*
X-21847000Y-10239500D01*
X-21847000Y-9985500D01*
X-21827000Y-9985500D01*
X-21827000Y-9965500D01*
X-21573000Y-9965500D01*
X-21573000Y-9985500D01*
X-20748750Y-9985500D01*
X-20590000Y-9826750D01*
X-20587080Y-9635000D01*
X-19312920Y-9635000D01*
X-19310000Y-9826750D01*
G37*
%TD.AperFunction*%
%TD*%
D16*
%TO.N,GND*%
X-1660000Y-15573000D02*
X-4319049Y-15573000D01*
X-4382862Y-15477497D01*
X-5455276Y-14434881D01*
X-6593395Y-15573000D01*
X-6952605Y-15573000D01*
X-5634881Y-14255276D01*
X-6677497Y-13182862D01*
X-8308658Y-12255679D01*
X-9110060Y-11989636D01*
X-9094403Y-11970557D01*
X-9082667Y-11948601D01*
X-9075440Y-11924776D01*
X-9073000Y-11900000D01*
X-9073000Y-6500000D01*
X-7138072Y-6500000D01*
X-7125812Y-6624482D01*
X-7089502Y-6744180D01*
X-7030537Y-6854494D01*
X-6951185Y-6951185D01*
X-6854494Y-7030537D01*
X-6744180Y-7089502D01*
X-6624482Y-7125812D01*
X-6500000Y-7138072D01*
X-4785750Y-7135000D01*
X-4627000Y-6976250D01*
X-4627000Y-4627000D01*
X-4373000Y-4627000D01*
X-4373000Y-6976250D01*
X-4214250Y-7135000D01*
X-2500000Y-7138072D01*
X-2375518Y-7125812D01*
X-2255820Y-7089502D01*
X-2145506Y-7030537D01*
X-2048815Y-6951185D01*
X-1969463Y-6854494D01*
X-1910498Y-6744180D01*
X-1874188Y-6624482D01*
X-1861928Y-6500000D01*
X-1865000Y-4785750D01*
X-2023750Y-4627000D01*
X-4373000Y-4627000D01*
X-4627000Y-4627000D01*
X-6976250Y-4627000D01*
X-7135000Y-4785750D01*
X-7138072Y-6500000D01*
X-9073000Y-6500000D01*
X-9073000Y-2500000D01*
X-7138072Y-2500000D01*
X-7135000Y-4214250D01*
X-6976250Y-4373000D01*
X-4627000Y-4373000D01*
X-4627000Y-2023750D01*
X-4373000Y-2023750D01*
X-4373000Y-4373000D01*
X-2023750Y-4373000D01*
X-1865000Y-4214250D01*
X-1861928Y-2500000D01*
X-1874188Y-2375518D01*
X-1910498Y-2255820D01*
X-1969463Y-2145506D01*
X-2048815Y-2048815D01*
X-2145506Y-1969463D01*
X-2255820Y-1910498D01*
X-2375518Y-1874188D01*
X-2500000Y-1861928D01*
X-4214250Y-1865000D01*
X-4373000Y-2023750D01*
X-4627000Y-2023750D01*
X-4785750Y-1865000D01*
X-6500000Y-1861928D01*
X-6624482Y-1874188D01*
X-6744180Y-1910498D01*
X-6854494Y-1969463D01*
X-6951185Y-2048815D01*
X-7030537Y-2145506D01*
X-7089502Y-2255820D01*
X-7125812Y-2375518D01*
X-7138072Y-2500000D01*
X-9073000Y-2500000D01*
X-9073000Y-1660000D01*
X-1660000Y-1660000D01*
X-1660000Y-15573000D01*
%TA.AperFunction,Conductor*%
D17*
G36*
X-1660000Y-15573000D02*
G01*
X-4319049Y-15573000D01*
X-4382862Y-15477497D01*
X-5455276Y-14434881D01*
X-6593395Y-15573000D01*
X-6952605Y-15573000D01*
X-5634881Y-14255276D01*
X-6677497Y-13182862D01*
X-8308658Y-12255679D01*
X-9110060Y-11989636D01*
X-9094403Y-11970557D01*
X-9082667Y-11948601D01*
X-9075440Y-11924776D01*
X-9073000Y-11900000D01*
X-9073000Y-6500000D01*
X-7138072Y-6500000D01*
X-7125812Y-6624482D01*
X-7089502Y-6744180D01*
X-7030537Y-6854494D01*
X-6951185Y-6951185D01*
X-6854494Y-7030537D01*
X-6744180Y-7089502D01*
X-6624482Y-7125812D01*
X-6500000Y-7138072D01*
X-4785750Y-7135000D01*
X-4627000Y-6976250D01*
X-4627000Y-4627000D01*
X-4373000Y-4627000D01*
X-4373000Y-6976250D01*
X-4214250Y-7135000D01*
X-2500000Y-7138072D01*
X-2375518Y-7125812D01*
X-2255820Y-7089502D01*
X-2145506Y-7030537D01*
X-2048815Y-6951185D01*
X-1969463Y-6854494D01*
X-1910498Y-6744180D01*
X-1874188Y-6624482D01*
X-1861928Y-6500000D01*
X-1865000Y-4785750D01*
X-2023750Y-4627000D01*
X-4373000Y-4627000D01*
X-4627000Y-4627000D01*
X-6976250Y-4627000D01*
X-7135000Y-4785750D01*
X-7138072Y-6500000D01*
X-9073000Y-6500000D01*
X-9073000Y-2500000D01*
X-7138072Y-2500000D01*
X-7135000Y-4214250D01*
X-6976250Y-4373000D01*
X-4627000Y-4373000D01*
X-4627000Y-2023750D01*
X-4373000Y-2023750D01*
X-4373000Y-4373000D01*
X-2023750Y-4373000D01*
X-1865000Y-4214250D01*
X-1861928Y-2500000D01*
X-1874188Y-2375518D01*
X-1910498Y-2255820D01*
X-1969463Y-2145506D01*
X-2048815Y-2048815D01*
X-2145506Y-1969463D01*
X-2255820Y-1910498D01*
X-2375518Y-1874188D01*
X-2500000Y-1861928D01*
X-4214250Y-1865000D01*
X-4373000Y-2023750D01*
X-4627000Y-2023750D01*
X-4785750Y-1865000D01*
X-6500000Y-1861928D01*
X-6624482Y-1874188D01*
X-6744180Y-1910498D01*
X-6854494Y-1969463D01*
X-6951185Y-2048815D01*
X-7030537Y-2145506D01*
X-7089502Y-2255820D01*
X-7125812Y-2375518D01*
X-7138072Y-2500000D01*
X-9073000Y-2500000D01*
X-9073000Y-1660000D01*
X-1660000Y-1660000D01*
X-1660000Y-15573000D01*
G37*
%TD.AperFunction*%
%TD*%
M02*
